<svg width="350" height="235" viewBox="0 0 350 235" fill="none" xmlns="http://www.w3.org/2000/svg">
<path opacity="0.1" d="M344.896 160.034L139.005 34.9387C136.683 33.4727 133.434 32.7397 130.184 32.7397C126.934 32.7397 123.917 33.4727 121.595 34.9387C119.274 33.4727 116.257 32.7397 112.775 32.7397C109.525 32.7397 106.275 33.4727 103.954 34.9387L4.60622 95.2872C2.05289 96.7532 0.660156 98.9521 0.660156 101.151C0.660156 103.35 2.05289 105.549 4.60622 107.015L210.498 232.11C212.819 233.576 216.069 234.309 219.319 234.309H236.728C239.977 234.309 243.227 233.576 245.548 232.11L344.896 171.761C347.45 170.295 348.842 168.096 348.842 165.897C348.61 163.698 347.217 161.5 344.896 160.034Z" fill="black"/>
<path d="M345.823 156.124L139.931 31.0294C137.61 29.5635 134.36 28.8305 131.111 28.8305C127.861 28.8305 124.611 29.5635 122.29 31.0294L22.9422 91.378C20.3888 92.8439 18.9961 95.0429 18.9961 97.2418V97.4861V100.418C18.9961 102.617 20.3888 104.816 22.9422 106.282L228.834 231.377C231.155 232.843 234.405 233.576 237.655 233.576C240.904 233.576 244.154 232.843 246.475 231.377L345.823 171.028C348.376 169.562 349.769 167.363 349.769 165.164V161.744C349.769 159.789 348.376 157.59 345.823 156.124Z" fill="#2E383B"/>
<path d="M237.655 230.644C234.405 230.644 231.155 229.911 228.834 228.445L22.9422 103.35C20.3888 101.884 18.9961 99.6851 18.9961 97.4862C18.9961 95.2872 20.3888 93.0883 22.9422 91.6224L122.29 31.2738C124.611 29.8079 127.861 29.0749 131.111 29.0749C134.36 29.0749 137.61 29.8079 139.931 31.2738L345.823 156.369C348.376 157.835 349.769 160.034 349.769 162.233C349.769 164.432 348.376 166.63 345.823 168.096L246.475 228.445C244.154 229.667 240.904 230.644 237.655 230.644Z" fill="#414E52"/>
<path d="M348.842 133.158C348.842 131.203 347.913 129.249 345.36 127.783L139.468 2.68764C134.826 -0.24427 127.166 -0.24427 122.523 2.68764L23.4076 63.0362C21.0864 64.5021 19.9258 66.4567 19.9258 68.4113V96.2645C19.9258 98.2191 21.0864 99.9294 23.4076 101.395L229.299 226.49C233.942 229.422 241.602 229.422 246.244 226.49L345.592 166.142C347.913 164.676 349.074 162.966 349.074 161.011L348.842 133.158Z" fill="url(#paint0_linear_708_12912)"/>
<path d="M345.36 127.783C350.002 130.714 350.002 135.112 345.36 138.044L246.012 198.393C241.37 201.325 233.71 201.325 229.067 198.393L23.4076 73.2979C18.7652 70.3659 18.7652 65.9681 23.4076 63.0362L122.756 2.68764C127.398 -0.24427 135.058 -0.24427 139.7 2.68764L345.36 127.783Z" fill="#D4DFDA"/>
<path d="M246.012 193.995C241.369 196.927 233.709 196.927 229.067 193.995L27.5853 71.5876C22.9429 68.6557 22.9429 64.2578 27.5853 61.3259L122.755 3.42061C127.398 0.488702 135.058 0.488702 139.7 3.42061L341.181 126.072C345.824 129.004 345.824 133.402 341.181 136.334L246.012 193.995Z" fill="white"/>
<path d="M227.21 74.2752L142.717 125.828L140.164 124.118L224.656 72.8092L227.21 74.2752Z" fill="#2E383B"/>
<path d="M141.325 22.2338C147.128 25.6543 147.128 31.5182 141.325 34.9387C135.522 38.3593 126.237 38.3593 120.434 34.9387C114.631 31.5182 114.631 25.6543 120.434 22.2338C126.005 18.5689 135.522 18.5689 141.325 22.2338Z" fill="url(#paint1_radial_708_12912)"/>
<path d="M120.203 23.944C126.006 20.5235 135.523 20.5235 141.326 23.944C143.879 25.41 145.272 27.3646 145.504 29.3192C145.968 26.6316 144.575 23.944 141.326 21.9894C135.523 18.5689 126.238 18.5689 120.203 21.9894C116.953 23.944 115.56 26.6316 116.025 29.3192C116.257 27.3646 117.649 25.41 120.203 23.944Z" fill="#2E383B"/>
<path d="M203.997 60.3485C209.8 63.7691 209.8 69.6329 203.997 73.0535C198.194 76.474 188.909 76.474 183.106 73.0535C177.303 69.6329 177.303 63.7691 183.106 60.3485C188.677 56.6836 198.194 56.6836 203.997 60.3485Z" fill="url(#paint2_radial_708_12912)"/>
<path d="M182.875 62.0588C188.678 58.6383 198.195 58.6383 203.766 62.0588C206.319 63.5248 207.712 65.4794 207.944 67.434C208.408 64.7464 207.015 62.0588 203.766 60.1042C197.963 56.6837 188.446 56.6837 182.875 60.1042C179.625 62.0588 178.232 64.7464 178.696 67.434C178.929 65.4794 180.553 63.5248 182.875 62.0588Z" fill="#2E383B"/>
<path d="M79.1163 60.1042C84.9193 63.5248 84.9193 69.3886 79.1163 72.8092C73.3132 76.2298 63.7962 76.2298 58.2253 72.8092C52.4223 69.3886 52.4223 63.5248 58.2253 60.1042C64.0284 56.6837 73.3132 56.6837 79.1163 60.1042Z" fill="url(#paint3_radial_708_12912)"/>
<path d="M58.2262 62.0588C64.0292 58.6383 73.5462 58.6383 79.1171 62.0588C81.6704 63.5248 83.0632 65.4794 83.2953 67.434C83.7595 64.7464 82.3668 62.0588 79.1171 60.1042C73.3141 56.6837 63.7971 56.6837 58.2262 60.1042C54.9765 62.0588 53.5837 64.7464 54.048 67.434C54.2801 65.4794 55.6728 63.5248 58.2262 62.0588Z" fill="#2E383B"/>
<path d="M142.021 98.2191C147.824 101.64 147.824 107.504 142.021 110.924C136.218 114.345 126.933 114.345 121.13 110.924C115.327 107.504 115.327 101.64 121.13 98.2191C126.701 94.7985 136.218 94.7985 142.021 98.2191Z" fill="url(#paint4_radial_708_12912)"/>
<path d="M120.898 100.174C126.701 96.7532 136.218 96.7532 141.789 100.174C144.342 101.64 145.735 103.594 145.967 105.549C146.431 102.861 145.039 100.174 141.789 98.2191C135.986 94.7985 126.701 94.7985 120.898 98.2191C117.648 100.174 116.256 102.861 116.72 105.549C116.952 103.594 118.345 101.64 120.898 100.174Z" fill="#2E383B"/>
<path d="M247.87 86.7358C253.673 90.1564 253.673 96.0202 247.87 99.4408C242.067 102.861 232.782 102.861 226.979 99.4408C221.176 96.0202 221.176 90.1564 226.979 86.7358C232.55 83.3153 242.067 83.3153 247.87 86.7358Z" fill="url(#paint5_radial_708_12912)"/>
<path d="M226.748 88.6904C232.551 85.2699 242.068 85.2699 247.639 88.6904C250.192 90.1564 251.585 92.111 251.817 94.0656C252.281 91.378 250.888 88.6904 247.639 86.7358C241.836 83.3153 232.551 83.3153 226.748 86.7358C223.498 88.6904 222.105 91.378 222.569 94.0656C222.802 92.111 224.194 90.1564 226.748 88.6904Z" fill="#2E383B"/>
<path d="M310.54 124.851C316.343 128.271 316.343 134.135 310.54 137.556C304.737 140.976 295.452 140.976 289.649 137.556C283.846 134.135 283.846 128.271 289.649 124.851C295.452 121.43 304.737 121.43 310.54 124.851Z" fill="url(#paint6_radial_708_12912)"/>
<path d="M289.65 126.805C295.453 123.385 304.97 123.385 310.541 126.805C313.094 128.271 314.487 130.226 314.719 132.18C315.183 129.493 313.791 126.805 310.541 124.851C304.738 121.43 295.221 121.43 289.65 124.851C286.4 126.805 285.008 129.493 285.472 132.18C285.704 130.226 287.097 128.271 289.65 126.805Z" fill="#2E383B"/>
<path d="M185.661 124.851C191.464 128.271 191.464 134.135 185.661 137.556C179.858 140.976 170.341 140.976 164.77 137.556C158.967 134.135 158.967 128.271 164.77 124.851C170.573 121.43 179.858 121.43 185.661 124.851Z" fill="url(#paint7_radial_708_12912)"/>
<path d="M164.771 126.805C170.574 123.385 180.091 123.385 185.662 126.805C188.215 128.271 189.608 130.226 189.84 132.18C190.304 129.493 188.912 126.805 185.662 124.851C179.859 121.43 170.342 121.43 164.771 124.851C161.521 126.805 160.129 129.493 160.593 132.18C160.825 130.226 162.218 128.271 164.771 126.805Z" fill="#2E383B"/>
<path d="M248.565 162.965C254.369 166.386 254.369 172.25 248.565 175.67C242.762 179.091 233.478 179.091 227.675 175.67C221.872 172.25 221.872 166.386 227.675 162.965C233.245 159.545 242.762 159.545 248.565 162.965Z" fill="url(#paint8_radial_708_12912)"/>
<path d="M227.443 164.92C233.246 161.499 242.763 161.499 248.334 164.92C250.887 166.386 252.28 168.341 252.512 170.295C252.976 167.608 251.584 164.92 248.334 162.965C242.531 159.545 233.246 159.545 227.443 162.965C224.193 164.92 222.801 167.608 223.265 170.295C223.497 168.341 224.89 166.386 227.443 164.92Z" fill="#2E383B"/>
<defs>
<linearGradient id="paint0_linear_708_12912" x1="231.078" y1="114.555" x2="245.939" y2="114.555" gradientUnits="userSpaceOnUse">
<stop stop-color="#BFBFBF"/>
<stop offset="1" stop-color="#D8E1E6"/>
</linearGradient>
<radialGradient id="paint1_radial_708_12912" cx="0" cy="0" r="1" gradientUnits="userSpaceOnUse" gradientTransform="translate(131.055 35.4579) scale(22.1903 23.3571)">
<stop offset="0.0454545" stop-color="#819BA3"/>
<stop offset="0.3133" stop-color="#414E52"/>
<stop offset="1" stop-color="#2E383B"/>
</radialGradient>
<radialGradient id="paint2_radial_708_12912" cx="0" cy="0" r="1" gradientUnits="userSpaceOnUse" gradientTransform="translate(193.807 73.5707) scale(22.1889 23.3556)">
<stop offset="0.0454545" stop-color="#819BA3"/>
<stop offset="0.3133" stop-color="#414E52"/>
<stop offset="1" stop-color="#2E383B"/>
</radialGradient>
<radialGradient id="paint3_radial_708_12912" cx="0" cy="0" r="1" gradientUnits="userSpaceOnUse" gradientTransform="translate(68.9814 73.5551) scale(22.1896 23.3563)">
<stop offset="0.0454545" stop-color="#819BA3"/>
<stop offset="0.3133" stop-color="#414E52"/>
<stop offset="1" stop-color="#2E383B"/>
</radialGradient>
<radialGradient id="paint4_radial_708_12912" cx="0" cy="0" r="1" gradientUnits="userSpaceOnUse" gradientTransform="translate(131.732 111.667) scale(22.1889 23.3556)">
<stop offset="0.0454545" stop-color="#819BA3"/>
<stop offset="0.3133" stop-color="#414E52"/>
<stop offset="1" stop-color="#2E383B"/>
</radialGradient>
<radialGradient id="paint5_radial_708_12912" cx="0" cy="0" r="1" gradientUnits="userSpaceOnUse" gradientTransform="translate(237.648 100.2) scale(22.1896 23.3563)">
<stop offset="0.0454545" stop-color="#819BA3"/>
<stop offset="0.3133" stop-color="#414E52"/>
<stop offset="1" stop-color="#2E383B"/>
</radialGradient>
<radialGradient id="paint6_radial_708_12912" cx="0" cy="0" r="1" gradientUnits="userSpaceOnUse" gradientTransform="translate(300.398 138.313) scale(22.1889 23.3556)">
<stop offset="0.0454545" stop-color="#819BA3"/>
<stop offset="0.3133" stop-color="#414E52"/>
<stop offset="1" stop-color="#2E383B"/>
</radialGradient>
<radialGradient id="paint7_radial_708_12912" cx="0" cy="0" r="1" gradientUnits="userSpaceOnUse" gradientTransform="translate(175.575 138.296) scale(22.1894 23.3561)">
<stop offset="0.0454545" stop-color="#819BA3"/>
<stop offset="0.3133" stop-color="#414E52"/>
<stop offset="1" stop-color="#2E383B"/>
</radialGradient>
<radialGradient id="paint8_radial_708_12912" cx="0" cy="0" r="1" gradientUnits="userSpaceOnUse" gradientTransform="translate(238.326 176.407) scale(22.1887 23.3554)">
<stop offset="0.0454545" stop-color="#819BA3"/>
<stop offset="0.3133" stop-color="#414E52"/>
<stop offset="1" stop-color="#2E383B"/>
</radialGradient>
</defs>
</svg>
