<svg width="256" height="30" viewBox="0 0 256 30" fill="none" xmlns="http://www.w3.org/2000/svg">
<g clip-path="url(#clip0_406_3230)">
<path d="M246.577 17.7853H250.407L248.494 13.325L246.577 17.7853ZM256 23.1377H252.716L251.571 20.4615H245.413L244.268 23.1377H240.984L248.49 7.07623L256 23.1377ZM233.234 9.75672H230.194V16.4472H233.234C235.188 16.4472 236.762 14.9461 236.762 13.0934C236.762 11.2535 235.188 9.75672 233.234 9.75672ZM230.194 23.1377H227.379V7.08052H233.234C236.744 7.08052 239.576 9.77387 239.576 13.0934C239.576 15.4308 238.187 17.4465 236.162 18.4458L239.107 23.1377H235.354L232.837 19.1234H230.19V23.1377H230.194ZM215.611 17.7853H219.44L217.528 13.325L215.611 17.7853ZM225.034 23.1377H221.75L220.604 20.4615H214.447L213.301 23.1377H210.017L217.523 7.07623L225.034 23.1377ZM189.841 7.08052L198.754 15.5551L207.667 7.08052V23.142H204.853V14.2213L198.754 20.0198L192.655 14.217V23.1377H189.841V7.08052ZM178.072 17.7853H181.902L179.989 13.325L178.072 17.7853ZM187.495 23.1377H184.211L183.065 20.4615H176.908L175.763 23.1377H172.479L179.985 7.07623L187.495 23.1377ZM161.63 14.573C160.525 13.5008 160.372 12.5401 160.372 11.3607C160.372 8.89896 163.132 6.90039 165.722 6.90039C168.311 6.90039 171.071 8.75743 171.071 10.4687L168.257 11.3607C168.257 10.3786 167.129 9.57659 165.722 9.57659C164.314 9.57659 163.187 10.3786 163.187 11.3607C163.187 12.3429 164.274 13.0934 165.722 13.325C167.373 13.5909 168.144 13.7539 168.929 14.0755C170.205 14.5773 171.536 15.701 171.536 18.4115C171.536 21.122 168.572 23.3178 165.717 23.3178C162.866 23.3178 159.898 21.3922 159.898 19.3035L162.713 18.4115C162.713 19.6424 164.459 20.6416 165.717 20.6416C167.088 20.6416 168.721 19.6424 168.721 18.4115C168.721 16.8246 167.052 16.34 165.717 16.0012C163.922 15.5551 162.514 15.4308 161.63 14.573ZM150.52 9.75672H144.891V13.771H149.582V16.4472H144.891V20.4615H151.458L150.52 23.1377H142.076V7.08052H151.458L150.52 9.75672ZM132.689 7.08052V20.4658H139.257L138.319 23.142H129.874V7.08052H132.689ZM118.616 9.75672C115.499 9.75672 112.986 12.1499 112.986 15.1091C112.986 18.0727 115.503 20.4615 118.616 20.4615C121.714 20.4615 124.245 18.0684 124.245 15.1091C124.245 12.1456 121.71 9.75672 118.616 9.75672ZM118.616 7.08052C123.271 7.08052 127.06 10.6831 127.06 15.1091C127.06 19.5351 123.271 23.1377 118.616 23.1377C113.942 23.1377 110.171 19.5351 110.171 15.1091C110.167 10.6831 113.942 7.08052 118.616 7.08052ZM107.821 20.7832C106.301 22.2456 104.181 23.1377 101.854 23.1377C97.1984 23.1377 93.4093 19.5351 93.4093 15.1091C93.4093 10.6831 97.1984 7.08052 101.854 7.08052C104.181 7.08052 106.301 7.97259 107.821 9.43506L105.832 11.3264C104.817 10.3614 103.41 9.75672 101.854 9.75672C98.7366 9.75672 96.2241 12.1499 96.2241 15.1091C96.2241 18.0727 98.7411 20.4615 101.854 20.4615C103.41 20.4615 104.817 19.8568 105.832 18.8918L107.821 20.7832ZM90.121 7.08052V23.142H87.3063V7.08052H90.121ZM77.6803 9.75672H74.64V16.4472H77.6803C79.6334 16.4472 81.2077 14.9461 81.2077 13.0934C81.2077 11.2535 79.6289 9.75672 77.6803 9.75672ZM74.64 23.1377H71.8253V7.08052H77.6803C81.1896 7.08052 84.0224 9.77387 84.0224 13.0934C84.0224 15.4308 82.6331 17.4465 80.6078 18.4458L83.5533 23.1377H79.8003L77.2833 19.1234H74.6355V23.1377H74.64ZM69.006 15.1091C69.006 19.5351 65.217 23.1377 60.5619 23.1377C55.9067 23.1377 52.1177 19.5351 52.1177 15.1091C52.1177 10.6831 55.9113 7.08052 60.5619 7.08052C62.8894 7.08052 65.0095 7.97259 66.5296 9.43506L64.5404 11.3264C63.5254 10.3614 62.1181 9.75672 60.5619 9.75672C57.4449 9.75672 54.9324 12.1499 54.9324 15.1091C54.9324 18.0727 57.4494 20.4615 60.5619 20.4615C63.1916 20.4615 65.3839 18.7503 66.0244 16.4472H61.031L60.5619 13.771H69.006V15.1091ZM41.7564 17.7853H45.5861L43.6735 13.325L41.7564 17.7853ZM51.1795 23.1377H47.8956L46.7499 20.4615H40.5927L39.4469 23.1377H36.1631L43.669 7.07623L51.1795 23.1377Z" fill="white"/>
<path fill-rule="evenodd" clip-rule="evenodd" d="M5.04756 21.9371L4.11834 22.4475C6.63986 26.0114 10.9206 28.3574 15.7787 28.3574C23.5327 28.3574 29.8207 22.3788 29.8207 15.0064C29.8207 7.63403 23.5327 1.64689 15.7787 1.64689C8.02467 1.64689 1.73665 7.62545 1.73665 14.9979C1.73665 17.2152 2.30501 19.3038 3.31091 21.1437L4.25817 20.6247C4.63708 20.4146 5.12424 20.539 5.34527 20.8992C5.55727 21.2638 5.42646 21.727 5.04756 21.9371ZM11.7821 22.1387L13.9383 22.6876C14.0826 22.722 14.1683 22.8506 14.1323 22.9836C14.0962 23.1208 13.9518 23.1851 13.8075 23.1508L11.6513 22.6019C11.2363 23.1594 9.96881 23.3438 8.61107 22.9964C7.07289 22.6062 5.99482 21.6969 6.20232 20.9593C6.40981 20.2259 7.81717 19.9557 9.35535 20.346C10.7176 20.6976 11.719 21.461 11.7821 22.1387ZM9.86957 18.9521C10.0771 18.2187 11.4889 17.9443 13.0226 18.3345C14.3849 18.6819 15.3863 19.441 15.4539 20.1229L17.6101 20.6719C17.7499 20.7062 17.8356 20.8478 17.795 20.9807C17.7589 21.1137 17.6146 21.1951 17.4702 21.1608L15.3141 20.6119C14.8991 21.1694 13.6361 21.341 12.2738 20.9936C10.7402 20.6033 9.66208 19.6855 9.86957 18.9521ZM13.5413 16.9364C13.7488 16.203 15.1607 15.9285 16.6989 16.3188C18.0611 16.6662 19.0625 17.4253 19.1257 18.1072L21.2818 18.6562C21.4217 18.6905 21.5074 18.832 21.4668 18.965C21.4307 19.0979 21.2863 19.1794 21.142 19.1408L18.9859 18.5919C18.5709 19.1494 17.3078 19.3252 15.9456 18.9778C14.4119 18.5876 13.3338 17.6741 13.5413 16.9364ZM17.2086 14.9249C17.4161 14.1916 18.828 13.9128 20.3661 14.3031C21.7284 14.6505 22.7298 15.4096 22.7929 16.0872L24.9536 16.6362C25.0934 16.6705 25.1791 16.812 25.1385 16.945C25.1025 17.0779 24.9536 17.1594 24.8138 17.1251L22.6531 16.5761C22.2381 17.1337 20.9751 17.3095 19.6128 16.9621C18.0792 16.5718 17.0011 15.6583 17.2086 14.9249ZM8.02918 12.9307L7.4518 14.985C8.0382 15.3753 8.22314 16.5804 7.85777 17.8756C7.44729 19.3338 6.48198 20.3588 5.71064 20.1658C4.93479 19.9686 4.65061 18.6262 5.06109 17.1637C5.42646 15.8685 6.22487 14.9164 6.93757 14.8563L7.51495 12.8063C7.55104 12.6691 7.69989 12.5919 7.83973 12.6305C7.98407 12.6562 8.06978 12.7934 8.02918 12.9307ZM11.7009 10.9192L11.1236 12.9693C11.71 13.3638 11.8949 14.5647 11.5295 15.8599C11.1191 17.3224 10.1538 18.3431 9.38241 18.1458C8.61107 17.9485 8.32238 16.6062 8.73286 15.148C9.09823 13.8528 9.89664 12.9006 10.6093 12.8406L11.1867 10.7906C11.2228 10.6576 11.3717 10.5761 11.5115 10.6104C11.6558 10.6447 11.7415 10.782 11.7009 10.9192ZM15.3502 8.89922L14.7728 10.9493C15.3592 11.3438 15.5532 12.549 15.1878 13.8442C14.7773 15.3067 13.821 16.3317 13.0452 16.1344C12.2738 15.9371 11.9896 14.5947 12.4001 13.1365C12.7655 11.8413 13.5413 10.8806 14.2856 10.8292L14.863 8.77913C14.8991 8.64189 15.0344 8.5604 15.1742 8.59471C15.3141 8.62473 15.3863 8.76197 15.3502 8.89922ZM19.0219 6.88349L18.4446 8.93353C19.031 9.32809 19.2249 10.5332 18.8595 11.8285C18.4491 13.2909 17.4883 14.3159 16.7169 14.1187C15.9456 13.9214 15.6479 12.579 16.0629 11.1165C16.4282 9.8213 17.2176 8.86491 17.9348 8.80486L18.5122 6.75483C18.5483 6.62187 18.6972 6.54039 18.837 6.57899C18.9768 6.6133 19.058 6.74625 19.0219 6.88349ZM21.963 10.1858C23.1809 9.5168 24.4529 9.37956 25.0077 9.81273L26.9429 8.74911C27.0692 8.68049 27.2315 8.71909 27.3037 8.83917C27.3759 8.95926 27.3353 9.11365 27.2045 9.18227L25.2694 10.2416C25.3912 10.9149 24.6333 11.8885 23.4109 12.5618C22.0351 13.3167 20.5917 13.3939 20.1947 12.7377C19.7933 12.0901 20.5872 10.945 21.963 10.1858ZM15.7787 0C7.06387 0 0 6.71623 0 15.0021C0 23.2881 7.06387 30.0043 15.7787 30.0043C24.4935 30.0043 31.5574 23.2881 31.5574 15.0021C31.5574 6.71623 24.489 0 15.7787 0Z" fill="#55BF9C"/>
</g>
<defs>
<clipPath id="clip0_406_3230">
<rect width="256" height="30" fill="white"/>
</clipPath>
</defs>
</svg>
