<svg width="201" height="163" viewBox="0 0 201 163" fill="none" xmlns="http://www.w3.org/2000/svg">
<g clip-path="url(#clip0_406_2585)">
<path d="M28.1479 100.986H38.8995C41.4497 100.986 43.3902 101.6 44.7168 102.828C46.0434 104.055 46.7047 105.821 46.7047 108.13C46.7047 109.532 46.4513 110.688 45.9484 111.61C45.4454 112.533 44.6772 113.309 43.6476 113.947C44.6772 114.145 45.5563 114.442 46.281 114.849C47.0057 115.253 47.5957 115.752 48.0472 116.338C48.5026 116.928 48.8273 117.59 49.0213 118.326C49.2193 119.063 49.3144 119.847 49.3144 120.682C49.3144 121.985 49.0887 123.137 48.6333 124.143C48.1779 125.149 47.5403 125.996 46.7166 126.681C45.8929 127.37 44.895 127.885 43.7149 128.23C42.5388 128.574 41.2121 128.744 39.739 128.744H28.1479V100.986ZM35.3632 111.884H36.6898C38.947 111.884 40.0756 110.989 40.0756 109.195C40.0756 107.405 38.947 106.506 36.6898 106.506H35.3632V111.884ZM35.3632 123.149H36.9472C38.7648 123.149 40.0637 122.916 40.8478 122.452C41.6319 121.985 42.0239 121.237 42.0239 120.207C42.0239 119.174 41.6319 118.429 40.8478 117.962C40.0598 117.495 38.7609 117.265 36.9472 117.265H35.3632V123.149Z" fill="#5E6370"/>
<path d="M61.9471 128.744H54.7319V100.986H66.22C69.3366 100.986 71.7245 101.798 73.3798 103.418C75.0351 105.037 75.8667 107.318 75.8667 110.264C75.8667 113.21 75.039 115.491 73.3798 117.11C71.7245 118.73 69.3366 119.538 66.22 119.538H61.9511V128.744H61.9471ZM61.9471 113.725H64.339C66.9883 113.725 68.3149 112.573 68.3149 110.264C68.3149 107.956 66.9883 106.803 64.339 106.803H61.9471V113.725Z" fill="#5E6370"/>
<path d="M80.7256 114.87C80.7256 112.807 81.1057 110.886 81.8661 109.108C82.6264 107.331 83.6837 105.778 85.0302 104.452C86.3805 103.125 87.9923 102.092 89.8733 101.343C91.7503 100.595 93.8175 100.219 96.0747 100.219C98.3082 100.219 100.371 100.591 102.26 101.343C104.149 102.092 105.777 103.129 107.139 104.452C108.501 105.778 109.563 107.331 110.323 109.108C111.083 110.886 111.463 112.807 111.463 114.87C111.463 116.929 111.083 118.849 110.323 120.631C109.563 122.413 108.501 123.965 107.139 125.288C105.777 126.615 104.149 127.648 102.26 128.4C100.371 129.149 98.3082 129.525 96.0747 129.525C93.8175 129.525 91.7503 129.149 89.8733 128.4C87.9962 127.652 86.3805 126.615 85.0302 125.288C83.6798 123.962 82.6264 122.409 81.8661 120.631C81.1057 118.849 80.7256 116.929 80.7256 114.87ZM88.2734 114.87C88.2734 115.975 88.4833 116.992 88.8991 117.927C89.3149 118.861 89.8812 119.669 90.594 120.358C91.3068 121.043 92.1345 121.578 93.0809 121.958C94.0274 122.338 95.0253 122.528 96.0826 122.528C97.14 122.528 98.1379 122.338 99.0844 121.958C100.027 121.578 100.862 121.043 101.587 120.358C102.312 119.669 102.882 118.861 103.298 117.927C103.714 116.992 103.924 115.975 103.924 114.87C103.924 113.765 103.714 112.747 103.298 111.813C102.882 110.882 102.312 110.071 101.587 109.386C100.862 108.697 100.027 108.162 99.0844 107.782C98.1379 107.402 97.14 107.212 96.0826 107.212C95.0253 107.212 94.0274 107.402 93.0809 107.782C92.1345 108.162 91.3068 108.697 90.594 109.386C89.8812 110.071 89.3189 110.882 88.8991 111.813C88.4794 112.747 88.2734 113.761 88.2734 114.87Z" fill="#5E6370"/>
<path d="M130.369 110.228C133.438 110.228 135.766 111.016 137.362 112.584C138.958 114.157 139.754 116.473 139.754 119.542C139.754 120.94 139.544 122.207 139.128 123.335C138.713 124.464 138.099 125.43 137.287 126.226C136.479 127.022 135.469 127.643 134.27 128.083C133.066 128.527 131.68 128.744 130.108 128.744H117.772V100.986H134.563V107.096H124.991V110.224H130.369V110.228ZM124.991 122.927H128.27C130.896 122.927 132.21 121.775 132.21 119.467C132.21 118.267 131.897 117.388 131.272 116.833C130.646 116.283 129.632 116.006 128.234 116.006H124.995V122.927H124.991Z" fill="#5E6370"/>
<path d="M141.936 100.986H150.513L156.145 111.44L162.366 100.986H170.353L152.276 128.744H145.021L151.797 117.994L141.936 100.986Z" fill="#5E6370"/>
<path d="M172.504 122.634C173.434 122.634 174.044 122.357 174.325 121.807C174.607 121.256 174.749 120.453 174.749 119.395V100.986H197.504V122.634H201V133.936H193.821V128.744H177.141V133.936H169.961V122.634H172.504ZM190.284 107.1H181.964V119.471C181.964 120.183 181.945 120.785 181.909 121.276C181.873 121.767 181.794 122.223 181.671 122.638H190.284V107.1Z" fill="#5E6370"/>
<path d="M17.0836 111.48V117.701H7.98741C8.23293 118.386 8.57746 119.028 9.01702 119.614C9.46055 120.204 9.97931 120.718 10.5812 121.158C11.1832 121.602 11.8564 121.946 12.6048 122.188C13.3533 122.433 14.1453 122.556 14.9809 122.556C16.1847 122.556 17.2856 122.314 18.2954 121.835C19.3013 121.356 20.2715 120.627 21.206 119.645V128.111C20.3467 128.404 19.6181 128.646 19.0161 128.828C18.4142 129.014 17.8875 129.153 17.4321 129.252C16.9767 129.351 16.5411 129.418 16.1253 129.454C15.7095 129.489 15.2541 129.509 14.763 129.509C12.7236 129.509 10.8109 129.133 9.02098 128.385C7.22708 127.636 5.66286 126.611 4.32833 125.312C2.98983 124.013 1.93646 122.485 1.16029 120.726C0.388084 118.984 0 117.087 0 115.052C0 112.894 0.380164 110.906 1.14049 109.089C1.90082 107.275 2.94627 105.707 4.26893 104.396C5.59554 103.082 7.15184 102.056 8.94574 101.324C10.7396 100.591 12.6642 100.219 14.7274 100.219C15.7808 100.219 16.8025 100.322 17.7806 100.532C18.7627 100.741 19.9032 101.114 21.206 101.656V110.273C19.5349 108.237 17.4638 107.216 14.9848 107.216C13.3652 107.216 11.9831 107.596 10.8426 108.356C9.70211 109.116 8.82298 110.162 8.20917 111.484H17.0836V111.48Z" fill="#5E6370"/>
<path d="M82.2343 150.516V162.613H78.8247V153.422H74.1874V162.613H70.7778V150.516H82.2343Z" fill="#E8BE0F"/>
<path d="M96.5856 162.613H93.176V153.422H89.8812V157.865C89.8812 158.843 89.7426 160.352 88.7368 161.441C88.4833 161.722 87.4497 162.724 85.4697 162.724C85.1331 162.724 84.8005 162.696 84.4639 162.613V159.706C84.6302 159.734 84.8282 159.762 84.9945 159.762C85.7469 159.762 86.1667 159.453 86.3924 159.176C86.7567 158.728 86.8122 158.114 86.8122 157.639V150.516H96.5895V162.613H96.5856Z" fill="#E8BE0F"/>
<path d="M105.064 155.069C105.313 153.56 106.07 152.527 106.794 151.826C108.05 150.626 109.614 150.123 111.515 150.123C113.748 150.123 115.285 150.879 116.318 151.826C117.49 152.887 118.33 154.621 118.33 156.574C118.33 158.502 117.49 160.205 116.318 161.294C115.566 161.99 114.057 162.996 111.515 162.996C109.333 162.996 107.8 162.244 106.794 161.294C106.153 160.68 105.313 159.587 105.064 157.971H103.416V162.608H100.007V150.511H103.416V155.065H105.064V155.069ZM114.813 156.577C114.813 154.649 113.443 153.14 111.519 153.14C109.59 153.14 108.224 154.649 108.224 156.577C108.224 158.45 109.59 159.987 111.519 159.987C113.447 159.987 114.813 158.45 114.813 156.577Z" fill="#E8BE0F"/>
<path d="M130.218 154.202C129.489 153.532 128.598 153.14 127.426 153.14C125.165 153.14 124.017 154.788 124.017 156.55C124.017 158.534 125.498 159.987 127.537 159.987C128.293 159.987 129.295 159.765 130.218 158.926V162.248C129.549 162.581 128.487 163 127.09 163C125.189 163 123.514 162.272 122.425 161.242C121.502 160.375 120.496 158.866 120.496 156.605C120.496 154.483 121.363 152.776 122.591 151.687C124.072 150.373 125.775 150.123 126.951 150.123C128.206 150.123 129.24 150.376 130.218 150.852V154.202Z" fill="#E8BE0F"/>
<path d="M105.967 55.9115C114.455 55.9115 121.336 49.0311 121.336 40.5436C121.336 32.0562 114.455 25.1758 105.967 25.1758C97.4786 25.1758 90.5977 32.0562 90.5977 40.5436C90.5977 49.0311 97.4786 55.9115 105.967 55.9115Z" fill="url(#paint0_linear_406_2585)"/>
<path d="M126.428 34.9767L124.425 38.4494C123.086 40.7659 119.744 40.7659 118.409 38.4494L116.405 34.9767C115.067 32.6602 116.738 29.7656 119.415 29.7656H123.427C126.092 29.7656 127.763 32.6602 126.428 34.9767Z" fill="#5E6370"/>
<path d="M90.7879 20.2187L86.7606 27.1958C84.9825 30.2765 80.5354 30.2765 78.7533 27.1958L74.726 20.2187C72.9479 17.138 75.1695 13.2852 78.7296 13.2852H86.7843C90.3444 13.2852 92.566 17.1341 90.7879 20.2187Z" fill="#5E6370"/>
<path d="M86.115 64.4377L94.8311 49.3431C97.3497 44.9794 103.654 44.9794 106.173 49.3431L114.889 64.4377C117.407 68.8014 114.259 74.2579 109.218 74.2579H91.7898C86.7447 74.2579 83.5925 68.8014 86.115 64.4377Z" fill="#5E6370"/>
<path d="M121.415 6.59698C123.237 6.59698 124.714 5.12019 124.714 3.29849C124.714 1.47678 123.237 0 121.415 0C119.593 0 118.116 1.47678 118.116 3.29849C118.116 5.12019 119.593 6.59698 121.415 6.59698Z" fill="#5E6370"/>
</g>
<defs>
<linearGradient id="paint0_linear_406_2585" x1="95.099" y1="51.4108" x2="116.835" y2="29.6736" gradientUnits="userSpaceOnUse">
<stop stop-color="#F5AB0E"/>
<stop offset="1" stop-color="#F1E50E"/>
</linearGradient>
<clipPath id="clip0_406_2585">
<rect width="201" height="163" fill="white"/>
</clipPath>
</defs>
</svg>
