<svg width="241" height="52" viewBox="0 0 241 52" fill="none" xmlns="http://www.w3.org/2000/svg">
<g clip-path="url(#clip0_406_2517)">
<path d="M221.678 18.6025L223.513 12.6632C224.015 11.0615 224.484 8.92473 224.934 7.26532H225.025C225.484 8.92473 226.031 11.0038 226.581 12.6632L228.523 18.6025H221.678ZM229.516 23.3373L231.898 30.5227H239.415L229.837 2.53055H220.666L211.223 30.5195H218.465L220.666 23.3341L229.516 23.3373ZM184.276 2.52734V30.5195H191.195V18.8075H192.525C196.282 18.8075 197.703 21.2165 198.758 24.372C199.492 26.4479 200.088 28.6102 201.142 30.5195H208.657C207.191 27.7357 206.181 24.7052 205.097 21.7163C203.803 18.3494 202.026 15.8603 198.039 14.9441L208.809 2.52734H200.321L191.797 14.156H191.195V2.52734H184.276ZM177.264 13.5346H165.899V7.7106H177.953V2.52734H158.899V30.5195H178.607V25.3298H165.899V18.6826H177.264V13.5346ZM138.816 30.5131H145.825V7.84195H154.259V2.52734H130.519V7.84195H138.816V30.5131ZM100.915 2.52734V30.5195H107.928V7.7106H118.879V30.5195H125.891V2.52734H100.915ZM78.1401 18.6025L79.9717 12.6632C80.4766 11.0615 80.9426 8.92473 81.3924 7.26532H81.483C81.9425 8.92473 82.4926 11.0038 83.0428 12.6632L84.9844 18.6025H78.1401ZM85.9746 23.3373L88.3531 30.5195H95.8672L86.2885 2.52734H77.1305L67.6909 30.5195H74.93L77.1305 23.3341L85.9746 23.3373Z" fill="#E30613"/>
<path d="M240.936 37.832H67.7329V51.7224H240.936V37.832Z" fill="#E30613"/>
<path d="M233.422 48.3726H235.176L234.739 41.1871H232.396L231.548 43.5898C231.289 44.3906 231.021 45.3389 230.797 46.1718H230.762C230.584 45.3293 230.338 44.4323 230.092 43.609L229.312 41.2096H226.924L226.419 48.395H228.079L228.218 45.6656C228.276 44.7719 228.312 43.6602 228.361 42.6896H228.383C228.571 43.6282 228.843 44.6533 229.102 45.4958L229.949 48.2797H231.351L232.321 45.4734C232.626 44.6309 232.969 43.609 233.205 42.6896H233.237C233.237 43.7371 233.273 44.7815 233.308 45.6464L233.422 48.3726ZM221.448 42.4237C221.692 42.3751 221.941 42.3536 222.189 42.3596C223.086 42.3596 223.591 42.7537 223.591 43.4136C223.591 44.1504 223.002 44.5893 222.05 44.5893C221.849 44.5944 221.647 44.5794 221.448 44.5444V42.4237ZM219.672 48.3726H221.448V45.8098C221.651 45.8335 221.856 45.8442 222.06 45.8418C223.121 45.8418 224.027 45.608 224.649 45.0858C224.888 44.8706 225.077 44.6064 225.203 44.3115C225.329 44.0166 225.388 43.6982 225.377 43.3783C225.38 43.0543 225.305 42.7342 225.157 42.445C225.01 42.1557 224.794 41.9056 224.529 41.7157C224.002 41.3313 223.212 41.1391 222.105 41.1391C221.295 41.1277 220.484 41.1781 219.681 41.2897L219.672 48.3726ZM213.824 45.3132L214.293 43.7884C214.423 43.3719 214.543 42.8273 214.659 42.4013H214.682C214.801 42.8273 214.941 43.3623 215.083 43.7884L215.578 45.3132H213.824ZM215.837 46.5274L216.449 48.3726H218.39L215.931 41.1871H213.578L211.154 48.3726H213.012L213.578 46.5274H215.837ZM207.155 42.6287C207.896 42.7152 208.744 43.247 208.744 44.7622C208.744 46.2775 207.85 46.8189 207.155 46.8958V42.6287ZM205.472 46.8958C204.766 46.8093 203.883 46.191 203.883 44.7847C203.883 43.2694 204.779 42.7152 205.472 42.6287V46.8958ZM205.472 40.8892V41.5299C203.941 41.6484 202.071 42.5518 202.071 44.8263C202.071 47.0335 203.728 47.9177 205.446 48.0298V48.6705H207.129V48.0298C208.883 47.8792 210.53 46.9823 210.53 44.7654C210.53 42.5486 208.837 41.6292 207.155 41.5235V40.8828L205.472 40.8892ZM198.103 45.0377V46.1173H201.187V45.0377H198.103ZM194.544 48.3758H196.343V42.5518H198.511V41.1871H192.434V42.5518H194.563L194.544 48.3758ZM191.214 44.0158H188.301V42.523H191.398V41.1871H186.515V48.3726H191.583V47.0399H188.314V45.3357H191.227L191.214 44.0158ZM181.341 48.3758H183.169V42.5518H185.334V41.1871H179.231V42.5518H181.36L181.341 48.3758ZM175.338 44.9224C175.574 44.8925 175.812 44.8754 176.05 44.8712C176.907 44.8712 177.603 45.2107 177.603 46.0308C177.603 46.8509 176.898 47.2257 176.027 47.2257C175.802 47.2297 175.577 47.2158 175.354 47.1841L175.338 44.9224ZM173.561 41.1903V48.3437C174.205 48.4219 174.854 48.4583 175.503 48.4527C176.739 48.4527 178.069 48.238 178.833 47.5333C179.045 47.3312 179.212 47.0875 179.323 46.8177C179.435 46.5479 179.488 46.2581 179.48 45.9668C179.48 44.365 178.03 43.6314 176.325 43.6314C176.001 43.6314 175.606 43.6634 175.354 43.6859V41.1871L173.561 41.1903ZM166.419 41.1903V44.3362C166.419 45.4222 166.303 46.3416 165.821 46.7868C165.568 47.01 165.249 47.1451 164.911 47.1713L165.138 48.4847C165.684 48.4905 166.223 48.3698 166.714 48.1323C167.914 47.4916 168.173 46.0725 168.173 44.2273V42.523H169.972V48.3758H171.762V41.1871L166.419 41.1903ZM158.086 41.1903L160.759 46.1269C160.791 46.1736 160.81 46.2278 160.814 46.2841C160.818 46.3403 160.807 46.3966 160.782 46.4473C160.689 46.6506 160.538 46.8227 160.348 46.9422C160.158 47.0617 159.936 47.1235 159.711 47.12C159.513 47.1236 159.316 47.1053 159.122 47.0656L158.992 48.3662C159.278 48.4566 159.577 48.4967 159.876 48.4847C160.278 48.4933 160.676 48.4113 161.041 48.2448C161.406 48.0783 161.728 47.8317 161.983 47.5237C162.572 46.8605 163.067 45.7745 163.549 44.6405L165.047 41.1871H163.164L162.306 43.6923C162.106 44.3009 161.983 44.7815 161.869 45.089H161.834C161.659 44.6533 161.494 44.2241 161.28 43.7147L160.128 41.1871L158.086 41.1903ZM151.291 41.1903V48.3758H153.067V45.3709H153.41C154.381 45.3709 154.74 45.9892 155.009 46.7997C155.17 47.3403 155.375 47.8673 155.62 48.3758H157.562C157.205 47.644 156.898 46.8895 156.643 46.1173C156.319 45.2524 155.853 44.6117 154.831 44.3778L157.604 41.1871H155.436L153.245 44.1728H153.093V41.1871L151.291 41.1903ZM145.469 45.3132L145.938 43.7884C146.068 43.3719 146.187 42.8273 146.304 42.4013H146.327C146.446 42.8273 146.585 43.3623 146.728 43.7884L147.223 45.3132H145.469ZM147.482 46.5274L148.093 48.3726H150.035L147.572 41.1871H145.21L142.786 48.3726H144.66L145.226 46.5274H147.482ZM138.796 42.6287C139.537 42.7152 140.385 43.247 140.385 44.7622C140.385 46.2775 139.489 46.8189 138.796 46.8958V42.6287ZM137.113 46.8958C136.408 46.8093 135.525 46.191 135.525 44.7847C135.525 43.2694 136.418 42.7152 137.113 42.6287V46.8958ZM137.113 40.8892V41.5299C135.583 41.6484 133.712 42.5518 133.712 44.8263C133.712 47.0335 135.369 47.9177 137.088 48.0298V48.6705H138.77V48.0298C140.524 47.8792 142.171 46.9823 142.171 44.7654C142.171 42.5486 140.479 41.6292 138.796 41.5235V40.8828L137.113 40.8892Z" fill="white"/>
<path fill-rule="evenodd" clip-rule="evenodd" d="M55.9919 51.5974L56.0889 51.623H55.3738L7.88146 51.7671H6.20195C5.72949 51.7671 5.25702 51.7896 4.78456 51.7992C4.35279 51.8183 3.92019 51.8065 3.49013 51.7639C2.75834 51.681 2.05716 51.4262 1.44495 51.0207C1.17769 50.8536 0.935804 50.6498 0.726548 50.4153C0.490702 50.1433 0.305528 49.832 0.179654 49.4959C0.0736946 49.199 0.0264543 48.8846 0.0405059 48.5701C0.0687864 48.1158 0.18756 47.6716 0.389995 47.263L0.422358 47.2887L0.480609 47.2246C8.80805 37.8277 17.1355 28.4307 25.4629 19.0338C26.1555 18.2554 27.1263 17.3199 28.1974 17.1117C29.851 16.8106 31.0548 18.1272 31.55 19.5464L31.7215 20.0333L32.113 21.1481L17.2466 37.9376C17.1167 38.0054 16.9913 38.0814 16.8712 38.1651C16.3558 38.5281 15.9371 39.0096 15.6512 39.5682C15.3451 40.1443 15.2264 40.8 15.3114 41.4455C15.4338 42.1937 15.8202 42.8748 16.402 43.3676C17.5476 44.4023 19.0879 44.5945 20.5441 44.8764C27.5793 46.2347 34.6145 47.5802 41.6432 48.9673C44.6689 49.5631 47.6817 50.2102 50.7042 50.8285C51.9241 51.0271 53.1409 51.2322 54.3609 51.4212C54.8956 51.5127 55.4364 51.5652 55.9789 51.5781" fill="#B3B3B2"/>
<path fill-rule="evenodd" clip-rule="evenodd" d="M33.1458 2.38477L56.3839 42.3067C56.6557 42.7712 56.9502 43.2261 57.2349 43.681C57.5585 44.2128 57.8983 44.7446 58.2058 45.2828C58.613 45.9852 58.9387 46.7311 59.1766 47.506C59.3993 48.1894 59.4228 48.9211 59.2445 49.6171C59.1449 49.9391 58.9822 50.2384 58.7656 50.4981C58.4336 50.8954 57.9983 51.1956 57.5068 51.3662C56.5359 51.7154 55.3872 51.5905 54.3775 51.4335C53.1575 51.2445 51.9408 51.0395 50.7208 50.8409C47.7015 50.2226 44.6888 49.5755 41.6598 48.9796C34.6311 47.5925 27.5959 46.247 20.5607 44.8888C19.1045 44.6068 17.5642 44.4146 16.4186 43.3799C15.8368 42.8871 15.4504 42.2061 15.328 41.4578C15.243 40.8123 15.3617 40.1566 15.6678 39.5806C15.9537 39.022 16.3724 38.5404 16.8878 38.1774C17.1257 38.01 17.386 37.8763 17.6612 37.7802C17.9176 37.6903 18.1888 37.649 18.4605 37.6585L20.7484 38.123L36.8996 41.4162C37.3947 41.5155 37.8704 41.634 38.3785 41.7365C38.7021 41.8102 39.0548 41.8807 39.3946 41.9447H39.4172V41.9832L39.4561 41.9992C39.5789 42.0485 39.707 42.084 39.8379 42.1049C40.0188 42.1389 40.2013 42.1635 40.3848 42.1786C40.8411 42.2165 41.2995 42.224 41.7569 42.201C42.3653 42.1658 43.2649 42.0569 43.7762 41.7045C44.1279 41.4801 44.4309 41.1886 44.6675 40.847C44.9042 40.5055 45.0699 40.1207 45.1548 39.7151C45.2386 39.2403 45.2386 38.7547 45.1548 38.2799C45.0693 37.7866 44.9459 37.3004 44.7858 36.8256C44.7114 36.5949 44.6337 36.3675 44.5561 36.14C41.1776 26.2925 37.7819 16.4097 34.369 6.49165L33.3399 3.34261V3.30417V3.26252V3.22088V3.17923V3.14079V3.10555V3.08954V3.07031V3.04148V3.01585V2.99343V2.9646V2.94858V2.92295V2.90373V2.88771V2.86209V2.83325V2.80763V2.7788V2.74996V2.72113V2.6955V2.66988L33.4597 2.61542L33.1458 2.38477Z" fill="#E4E4E3"/>
<path fill-rule="evenodd" clip-rule="evenodd" d="M0.332598 47.1286L25.0075 4.25615C26.0236 2.49103 26.9944 0.271002 29.3147 0.0115191C29.7998 -0.051814 30.2928 -0.018044 30.7644 0.110827C31.1611 0.225607 31.5277 0.424567 31.8388 0.693863C32.6122 1.35699 33.0426 2.39492 33.3501 3.34316L34.3694 6.49219C37.7759 16.4145 41.1856 26.3357 44.5986 36.2559C44.6762 36.4833 44.7539 36.7108 44.8283 36.9414C44.9884 37.4163 45.1118 37.9025 45.1973 38.3958C45.2811 38.8706 45.2811 39.3562 45.1973 39.831C45.1124 40.2366 44.9467 40.6214 44.71 40.9629C44.4734 41.3045 44.1704 41.5959 43.8187 41.8204C43.3074 42.1728 42.4078 42.2817 41.7994 42.3169C41.342 42.3399 40.8836 42.3324 40.4273 42.2945C40.2438 42.2794 40.0613 42.2548 39.8804 42.2208C39.7495 42.1999 39.6214 42.1644 39.4986 42.1151L39.4597 42.0991V42.0606L39.1685 41.2437C36.6293 34.0188 34.0922 26.7917 31.5573 19.5625C31.0622 18.1433 29.8584 16.8267 28.2047 17.1278C27.1336 17.3232 26.1628 18.2586 25.4703 19.0499C17.1342 28.4468 8.80674 37.8438 0.487927 47.2407L0.42968 47.3048L0.290527 47.2054L0.332598 47.1286Z" fill="#E30613"/>
</g>
<defs>
<clipPath id="clip0_406_2517">
<rect width="241" height="52" fill="white"/>
</clipPath>
</defs>
</svg>
