<svg width="241" height="77" viewBox="0 0 241 77" fill="none" xmlns="http://www.w3.org/2000/svg">
<g clip-path="url(#clip0_406_2545)">
<path fill-rule="evenodd" clip-rule="evenodd" d="M47.9557 47.0448C49.4281 44.7348 52.6234 41.9423 50.4571 37.6542C49.594 35.9431 48.3991 35.1765 46.9944 34.8617L41.3181 34.9027L41.3587 29.1603C41.0473 27.7435 40.2823 26.5354 38.5966 25.6627C34.3554 23.4725 31.5934 26.6894 29.3087 28.1918C27.0239 26.7031 24.2619 23.4725 20.0241 25.6627C18.3317 26.5354 17.5701 27.7435 17.2621 29.1603L17.3027 34.9062L11.6229 34.8651C10.2182 35.1799 9.02337 35.9534 8.16362 37.6576C5.99733 41.9457 9.17907 44.7382 10.6616 47.0482C9.19261 49.3548 5.99733 52.1473 8.16362 56.4354C9.02337 58.1465 10.2182 58.9131 11.6229 59.2279L17.3027 59.1868L17.2621 64.9259C17.5701 66.3427 18.3384 67.5542 20.0241 68.4234C24.2619 70.6136 27.0239 67.3967 29.3087 65.8944C31.5934 67.3831 34.3554 70.6136 38.5966 68.4234C40.2891 67.5542 41.0473 66.3427 41.3587 64.9259L41.3181 59.1834L46.9944 59.2245C48.3991 58.9096 49.594 58.1362 50.4571 56.4319C52.6234 52.1439 49.4416 49.3514 47.9557 47.0448ZM34.809 29.28C39.8456 30.1014 40.3635 34.3826 41.159 35.2244C41.9544 36.0663 43.5284 36.0629 45.1463 38.2189C45.8524 39.1781 46.3255 40.2918 46.5273 41.47C46.299 41.1117 45.9882 40.8146 45.6215 40.6042C45.2549 40.3938 44.8433 40.2764 44.4219 40.2619L39.0434 40.0977C35.706 39.9916 36.3356 40.4399 36.4574 36.9253C36.5353 34.362 36.5319 34.4271 36.6097 31.8638C36.6257 31.2943 36.459 30.7349 36.1344 30.2691C35.8098 29.8034 35.3448 29.4564 34.809 29.28ZM47.0215 52.4587C46.2057 57.551 41.9747 58.0746 41.1387 58.8788C40.3026 59.6831 40.3128 61.2744 38.1803 62.9102C37.2316 63.6241 36.13 64.1024 34.9647 64.3065C35.3187 64.0755 35.612 63.7611 35.8195 63.3904C36.027 63.0197 36.1425 62.6036 36.1562 62.1779L36.322 56.7399C36.4236 53.3622 35.9836 54.0022 39.4598 54.1219L44.4659 54.2794C45.0291 54.295 45.5822 54.1262 46.0427 53.7981C46.5032 53.47 46.8466 53.0002 47.0215 52.4587ZM24.096 64.8061C19.0594 63.9951 18.5415 59.7036 17.7427 58.8617C16.9439 58.0199 15.3733 58.0267 13.7587 55.8673C13.0521 54.9096 12.579 53.7969 12.3777 52.6196C12.6062 52.9775 12.9171 53.274 13.2838 53.4838C13.6505 53.6936 14.062 53.8104 14.4831 53.8242L19.8582 53.9919C23.199 54.0946 22.5661 53.6497 22.4476 57.1643C22.3698 59.7275 22.3731 59.6591 22.2953 62.2223C22.2797 62.7922 22.4465 63.3519 22.771 63.8181C23.0955 64.2843 23.5602 64.632 24.096 64.8095V64.8061ZM11.8836 41.624C12.6993 36.5351 16.9303 36.0115 17.763 35.2039C18.5957 34.3963 18.5923 32.8083 20.7247 31.1759C21.6735 30.462 22.775 29.9837 23.9403 29.7797C23.5859 30.0103 23.2923 30.3245 23.0848 30.6953C22.8772 31.0661 22.7619 31.4824 22.7489 31.9083L22.583 37.3428C22.4815 40.7205 22.9215 40.0806 19.4453 39.9608L14.4391 39.8068C13.8764 39.7909 13.3236 39.9593 12.8631 40.2867C12.4027 40.6141 12.0591 41.0832 11.8836 41.624ZM35.442 41.0046C36.2591 41.205 36.997 41.6511 37.5583 42.284C38.1197 42.9169 38.4782 43.707 38.5865 44.55C38.732 45.9531 38.1397 46.5109 38.1329 47.1235C38.1262 47.7361 38.732 48.2939 38.5865 49.697C38.4791 50.5383 38.1226 51.327 37.5638 51.9597C37.0051 52.5925 36.2701 53.0396 35.4555 53.2424C35.2551 54.0656 34.8134 54.8083 34.1882 55.3731C33.5631 55.938 32.7837 56.2987 31.9522 56.408C30.5611 56.5551 30.0127 55.9528 29.4068 55.946C28.8009 55.9391 28.2492 56.5551 26.858 56.408C26.0266 56.2987 25.2472 55.938 24.622 55.3731C23.9969 54.8083 23.5551 54.0656 23.3547 53.2424C22.5401 53.0396 21.8052 52.5925 21.2464 51.9597C20.6877 51.327 20.3312 50.5383 20.2238 49.697C20.0782 48.2939 20.6706 47.7395 20.6773 47.1235C20.6841 46.5075 20.0782 45.9531 20.2238 44.55C20.3312 43.7087 20.6877 42.92 21.2464 42.2873C21.8052 41.6545 22.5401 41.2074 23.3547 41.0046C23.5551 40.1814 23.9969 39.4387 24.622 38.8738C25.2472 38.309 26.0266 37.9483 26.858 37.839C28.2492 37.6953 28.7976 38.2942 29.4068 38.301C30.0161 38.3079 30.5611 37.6953 31.9522 37.839C32.7837 37.9483 33.5631 38.309 34.1882 38.8738C34.8134 39.4387 35.2551 40.1814 35.4555 41.0046H35.442ZM48.6428 27.4834C54.3327 28.8523 58.1441 33.9069 58.6484 38.8143C59.1121 43.3043 57.2132 45.0804 57.1929 47.0448C57.1726 49.0091 59.1121 50.7819 58.6484 55.2581C58.1441 60.1656 54.3327 65.2099 48.6428 66.5891C47.2889 72.3419 42.2895 76.1953 37.4356 76.7086C32.9948 77.174 31.238 75.2576 29.3121 75.2336C27.3861 75.2097 25.6158 77.174 21.1885 76.7086C16.3346 76.1953 11.342 72.3419 9.98128 66.5891C4.29137 65.2202 0.480054 60.1656 -0.027671 55.2581C-0.491393 50.7682 1.4075 48.992 1.43119 47.0448C1.45489 45.0975 -0.491393 43.3043 -0.027671 38.8143C0.480054 33.9069 4.29137 28.8625 9.98128 27.4834C11.3352 21.7306 16.3346 17.8772 21.1885 17.3639C25.6294 16.8984 27.3861 18.8149 29.3121 18.8388C31.238 18.8628 33.0117 16.8984 37.4356 17.3639C42.3098 17.8772 47.2923 21.7306 48.6564 27.4834H48.6428Z" fill="#E50051"/>
<path fill-rule="evenodd" clip-rule="evenodd" d="M81.8384 62.5208L89.3595 51.8846C89.4606 51.7013 89.6076 51.5481 89.7859 51.4406C89.9642 51.333 90.1673 51.2749 90.3749 51.272H93.7834C94.1106 51.2827 94.4201 51.4242 94.6441 51.6655C94.8681 51.9067 94.9883 52.228 94.9783 52.5587V72.5171C94.9883 72.8479 94.8681 73.1692 94.6441 73.4104C94.4201 73.6516 94.1106 73.7932 93.7834 73.8039H89.8401C89.513 73.7932 89.2034 73.6516 88.9794 73.4104C88.7554 73.1692 88.6352 72.8479 88.6453 72.5171V62.6543L82.9723 70.7958C82.8705 70.9782 82.7231 71.1305 82.545 71.2374C82.3668 71.3442 82.164 71.402 81.9568 71.4049H81.0971C80.9081 71.4031 80.7223 71.3551 80.5555 71.2652C80.3888 71.1752 80.2459 71.0459 80.1392 70.8882L74.3308 62.5277V72.5171C74.3399 72.8482 74.219 73.1695 73.9944 73.4106C73.7699 73.6518 73.46 73.7932 73.1326 73.8039H69.6191C69.2917 73.7932 68.9818 73.6518 68.7573 73.4106C68.5327 73.1695 68.4118 72.8482 68.4209 72.5171V52.5587C68.4118 52.2277 68.5327 51.9064 68.7573 51.6653C68.9818 51.4241 69.2917 51.2827 69.6191 51.272H73.1326C73.3175 51.2737 73.4994 51.3195 73.6635 51.4057C73.8276 51.492 73.9693 51.6162 74.0769 51.7682L81.8384 62.5208ZM213.427 71.8874L223.839 52.0386C223.925 51.8144 224.075 51.6214 224.271 51.4842C224.466 51.3471 224.698 51.272 224.935 51.2686H229.092C229.307 51.2705 229.517 51.3318 229.701 51.4458C229.884 51.5598 230.033 51.7221 230.131 51.9154L240.719 71.8259C240.838 72.0338 240.901 72.2699 240.902 72.5103C240.912 72.841 240.792 73.1623 240.568 73.4036C240.344 73.6448 240.034 73.7863 239.707 73.7971H234.867C234.648 73.7956 234.434 73.7323 234.249 73.6144C234.065 73.4964 233.916 73.3285 233.821 73.1297L231.973 69.4714H221.639L219.899 73.0339C219.812 73.2575 219.661 73.45 219.466 73.5871C219.271 73.7241 219.04 73.7996 218.802 73.8039H214.463C214.258 73.8039 214.056 73.7471 213.881 73.6396C213.601 73.46 213.4 73.1804 213.316 72.8568C213.231 72.5332 213.271 72.1895 213.427 71.8943V71.8874ZM226.814 59.126L224.699 63.26H228.858L226.828 59.126H226.814ZM185.621 72.5171V52.5587C185.616 52.3947 185.643 52.2313 185.7 52.0778C185.758 51.9243 185.845 51.7838 185.956 51.6643C186.067 51.5448 186.201 51.4486 186.349 51.3813C186.497 51.314 186.657 51.2769 186.819 51.272H191.121C191.448 51.2827 191.758 51.4242 191.982 51.6655C192.206 51.9067 192.326 52.228 192.316 52.5587V59.0062H203.405V52.5587C203.4 52.3947 203.427 52.2313 203.484 52.0778C203.542 51.9243 203.629 51.7838 203.74 51.6643C203.851 51.5448 203.985 51.4486 204.133 51.3813C204.281 51.314 204.441 51.2769 204.603 51.272H208.905C209.232 51.2827 209.542 51.4242 209.766 51.6655C209.99 51.9067 210.11 52.228 210.1 52.5587V72.5171C210.11 72.8479 209.99 73.1692 209.766 73.4104C209.542 73.6516 209.232 73.7932 208.905 73.8039H204.603C204.275 73.7932 203.965 73.6518 203.741 73.4106C203.516 73.1695 203.395 72.8482 203.405 72.5171V65.2175H192.316V72.5171C192.326 72.8479 192.206 73.1692 191.982 73.4104C191.758 73.6516 191.448 73.7932 191.121 73.8039H186.819C186.491 73.7932 186.182 73.6518 185.957 73.4106C185.732 73.1695 185.612 72.8482 185.621 72.5171ZM176.627 51.272H179.565C179.893 51.2827 180.202 51.4241 180.427 51.6653C180.652 51.9064 180.773 52.2277 180.763 52.5587V72.5171C180.773 72.8482 180.652 73.1695 180.427 73.4106C180.202 73.6518 179.893 73.7932 179.565 73.8039H175.693C175.366 73.7932 175.056 73.6516 174.832 73.4104C174.608 73.1692 174.488 72.8479 174.498 72.5171V61.7063L161.514 73.4959C161.303 73.6916 161.028 73.8003 160.742 73.8005H157.801C157.474 73.7897 157.164 73.6482 156.94 73.407C156.716 73.1657 156.596 72.8445 156.606 72.5137V52.5587C156.596 52.228 156.716 51.9067 156.94 51.6655C157.164 51.4242 157.474 51.2827 157.801 51.272H161.673C161.835 51.2769 161.995 51.314 162.143 51.3813C162.291 51.4486 162.425 51.5448 162.536 51.6643C162.647 51.7838 162.734 51.9243 162.792 52.0778C162.849 52.2313 162.876 52.3947 162.871 52.5587V63.041C162.875 63.0946 162.875 63.1483 162.871 63.2018V63.3216V63.3045L175.859 51.5731C176.07 51.3813 176.343 51.2752 176.627 51.2754V51.272ZM139.232 51.272H142.21C142.442 51.2755 142.668 51.3473 142.861 51.4786C143.053 51.6099 143.203 51.7949 143.293 52.0112L153.448 71.8977C153.602 72.1949 153.639 72.5401 153.552 72.8639C153.465 73.1877 153.259 73.4661 152.977 73.6431C152.802 73.7454 152.604 73.7997 152.402 73.8005H148.09C147.861 73.7971 147.637 73.7272 147.447 73.5992C147.256 73.4712 147.105 73.2904 147.013 73.0784L140.921 60.7584L134.489 73.1263C134.391 73.3216 134.242 73.4863 134.059 73.6026C133.875 73.719 133.664 73.7826 133.447 73.7868H128.549C128.222 73.7761 127.912 73.6346 127.687 73.3935C127.463 73.1524 127.342 72.8311 127.351 72.5C127.35 72.2349 127.427 71.9754 127.571 71.754L138.199 51.9051C138.297 51.7167 138.443 51.558 138.621 51.4449C138.799 51.3319 139.004 51.2687 139.215 51.2617L139.232 51.272ZM97.5744 71.8874L107.986 52.0386C108.072 51.8144 108.223 51.6214 108.418 51.4842C108.614 51.3471 108.845 51.272 109.083 51.2686H113.243C113.457 51.2712 113.667 51.3327 113.849 51.4467C114.032 51.5606 114.18 51.7226 114.279 51.9154L124.866 71.8259C124.986 72.0338 125.049 72.2699 125.049 72.5103C125.059 72.841 124.939 73.1623 124.715 73.4036C124.491 73.6448 124.181 73.7863 123.854 73.7971H119.014C118.796 73.7948 118.582 73.7312 118.397 73.6133C118.213 73.4955 118.064 73.328 117.968 73.1297L116.12 69.4714H105.786L104.046 73.0339C103.959 73.2575 103.809 73.45 103.613 73.5871C103.418 73.7241 103.187 73.7996 102.95 73.8039H98.6136C98.4072 73.8044 98.2046 73.7476 98.028 73.6396C97.7488 73.46 97.547 73.1804 97.4629 72.8568C97.3788 72.5332 97.4186 72.1895 97.5744 71.8943V71.8874ZM110.961 59.126L108.846 63.26H113.006L110.961 59.126Z" fill="#E50051"/>
<path fill-rule="evenodd" clip-rule="evenodd" d="M113.73 41.7314L119.237 29.6065L119.261 29.5586H121.553L121.576 29.6065L127.161 41.7314L127.215 41.8478H124.484L124.464 41.7999L123.333 39.2161H117.24L116.15 41.7965L116.127 41.8478H113.663L113.717 41.7314H113.73ZM180.848 41.6698L186.332 29.6065L186.352 29.5586H188.647L188.667 29.6065L194.252 41.7314L194.306 41.8478H191.581L191.561 41.7999L190.431 39.2161H184.338L183.245 41.7965L183.224 41.8478H177.145L177.121 41.8273L171.428 36.6186V41.8478H169.001V29.5586H171.428V34.5037L176.688 29.5825L176.712 29.5586H180.242L180.08 29.7057L173.696 35.3524L180.835 41.6698H180.848ZM187.405 32.1971L185.343 36.8411H189.405L187.415 32.1971H187.405ZM156.115 41.7793V29.5586H166.229V31.7933H158.532V34.3292H163.02V36.5605H158.532V39.4728H166.317V41.8478H156.102V41.752L156.115 41.7793ZM154.121 31.9473H149.721V41.8717H147.294V31.9473H142.82V29.5723H154.189V31.9473H154.121ZM129.426 41.752V29.5586H140.907V41.8478H138.48V31.9233H131.853V41.8478H129.426V41.752ZM120.287 32.1697L118.229 36.8137H122.291L120.287 32.1697Z" fill="#00A151"/>
<path fill-rule="evenodd" clip-rule="evenodd" d="M81.913 0.447786C82.0574 0.404088 82.1978 0.347987 82.3327 0.280097C82.4714 0.20704 82.6195 0.154047 82.7728 0.122675C83.1925 -0.000524834 83.2636 -0.219547 83.7307 -0.0484359C86.144 13.6747 81.4324 21.8538 71.2068 25.4232C65.8215 26.9392 60.2805 25.827 55.6196 22.8154L56.2187 21.1317L56.4794 21.1043C61.1031 20.9366 65.6624 19.3932 69.6802 17.1414C69.8258 17.0593 69.8833 17.0148 70.0187 16.9292C72.0496 15.6972 75.4683 12.6241 76.7884 10.67C76.9508 10.427 77.2386 10.184 77.1438 9.89996C76.9407 9.99236 75.8372 11.2346 75.5766 11.5153C75.36 11.7069 75.1467 11.8985 74.9301 12.0833L73.2377 13.6165L74.9301 12.0902C69.6599 16.6109 63.5841 18.9791 56.5945 19.7594C56.8551 18.873 56.6249 19.0749 57.1225 18.7088C58.6592 17.5623 57.2173 15.0401 55.4301 15.9505C55.2049 16.0613 55.0086 16.224 54.8569 16.4255C54.7053 16.627 54.6025 16.8616 54.5568 17.1106C54.5082 17.3853 54.5296 17.6681 54.619 17.9321C54.7084 18.1962 54.8629 18.4328 55.0679 18.6198V18.6403V18.6609V18.6951V18.8217V18.8628V18.8833V18.9073V18.9312V18.9757V18.9997V19.027V19.0886V19.1639V19.2255V19.2529V19.2837V19.3008V19.3316C54.9833 19.602 54.8953 19.8621 54.8513 20.0161L54.2826 21.3849L54.2488 21.4329C53.9441 21.2104 53.4466 20.7484 53.2333 20.6286C52.6407 21.1075 52.1016 21.6502 51.6255 22.2473C48.7518 25.9125 50.6981 27.6818 52.9253 25.2418C53.653 24.4478 54.2792 23.1885 54.7633 21.8675H54.787L55.0578 21.0393C55.1435 20.7838 55.2247 20.5305 55.3015 20.2796C55.3928 19.9784 55.4775 19.6807 55.5553 19.3966V19.3693V19.3419V19.3145V19.2871V19.4377V19.4035V19.3761V19.3487V19.3213V19.294V19.2666V19.2461V18.8901C55.6535 18.5719 55.8295 18.2057 56.1849 18.4761C56.5403 18.7464 56.1849 19.4206 56.1274 19.6773V19.7012V19.7252L56.0732 19.9168H56.019L55.1085 22.7846C54.9494 23.2158 54.77 23.6368 54.5906 24.0269C54.1438 24.9646 52.9185 26.8879 51.4326 27.2814C51.0387 27.4053 50.6141 27.383 50.235 27.2186C49.8559 27.0543 49.5473 26.7586 49.3645 26.3848C48.5656 24.5779 51.1212 21.3336 52.4379 20.3549C46.1319 5.06094 73.1835 4.0377 81.913 0.447786ZM74.3378 18.6027L72.5032 18.7464L71.9616 20.4575L73.7996 20.3104L74.3378 18.5993V18.6027ZM68.4244 11.3647L66.5425 11.5153L66.0348 13.2024L67.9032 13.0553L68.4244 11.3647ZM76.0945 11.2962L76.1656 11.197L76.2096 11.1354L76.1656 11.197L76.0945 11.2962ZM70.7431 10.3483C70.7769 9.62276 70.3504 9.29423 69.4568 9.3661L66.5459 9.59539C66.0764 9.63297 65.6336 9.83089 65.2901 10.1566C64.9273 10.4828 64.6593 10.9029 64.515 11.3715L63.838 13.5652C63.7793 13.7435 63.7429 13.9286 63.7297 14.1161C63.7146 14.2654 63.7306 14.4162 63.7767 14.5589C63.8227 14.7015 63.8978 14.8328 63.9971 14.9443C64.1015 15.0505 64.2291 15.1305 64.3695 15.1781C64.51 15.2256 64.6595 15.2393 64.8061 15.2181L67.6019 14.9957C68.1437 14.9592 68.6614 14.7555 69.0851 14.4122C69.5087 14.0689 69.8181 13.6024 69.9713 13.0758L70.628 10.8856C70.6869 10.712 70.7233 10.5314 70.7363 10.3483H70.7431ZM76.6733 17.6C76.7071 16.8836 76.2773 16.5619 75.3837 16.6349L72.4389 16.8676C71.4471 16.9463 70.7803 17.5315 70.4486 18.6232L69.7716 20.8169C69.7134 21.0012 69.677 21.1919 69.6633 21.3849C69.6462 21.5343 69.6613 21.6856 69.7075 21.8286C69.7536 21.9715 69.8298 22.1027 69.9307 22.2131C70.0412 22.3147 70.1725 22.3903 70.3153 22.4347C70.4581 22.4791 70.6087 22.491 70.7566 22.4698L73.566 22.2473C74.1003 22.2078 74.609 22.0009 75.0215 21.6553C75.4373 21.313 75.7406 20.8512 75.8914 20.3309L76.5684 18.1373C76.623 17.9628 76.6571 17.7825 76.6699 17.6H76.6733Z" fill="#00A151"/>
</g>
<defs>
<clipPath id="clip0_406_2545">
<rect width="241" height="77" fill="white"/>
</clipPath>
</defs>
</svg>
