<svg width="163" height="163" viewBox="0 0 163 163" fill="none" xmlns="http://www.w3.org/2000/svg">
<g clip-path="url(#clip0_406_2380)">
<path d="M163.001 81.9935C162.594 127.005 125.775 163.266 80.7621 162.995C35.7542 162.724 -0.406196 126.012 0.00543283 81.0008C0.412219 35.9942 37.2312 -0.271625 82.2439 -0.000442137C127.252 0.275583 163.407 36.9821 163.001 81.9935Z" fill="#E5007E"/>
<path d="M81.2845 157.064H80.8148C60.5917 156.943 41.6568 148.957 27.4968 134.58C13.3561 120.222 5.67077 101.21 5.85479 81.0405C6.03881 60.9536 14.0147 42.0919 28.3103 27.9275C42.6253 13.7485 61.5893 5.9375 81.7155 5.9375L82.1901 5.94234C102.413 6.06341 121.348 14.0488 135.503 28.4263C149.644 42.7796 157.329 61.7962 157.145 81.9654C156.961 102.052 148.985 120.914 134.69 135.083C120.375 149.257 101.411 157.064 81.2845 157.064ZM81.7155 6.67357C40.756 6.67357 7.12842 40.0387 6.76037 81.0453C6.57635 101.045 14.1939 119.892 28.1989 134.115C42.1895 148.313 60.8726 156.202 80.8244 156.323H81.2893C122.249 156.323 155.876 122.958 156.249 81.9509C156.433 61.9512 148.816 43.104 134.811 28.8815C120.82 14.6783 102.137 6.79463 82.1852 6.66872L81.7155 6.67357Z" fill="#F9F9FA"/>
<path d="M109.145 70.9426H108.336V57.059C108.336 56.076 107.672 55.4367 106.36 55.1559C106.249 55.1317 97.5753 52.8653 81.8076 52.8653C66.0591 52.8653 58.7176 55.1268 58.645 55.1462C57.2115 55.6159 56.6256 56.1728 56.6256 57.059V70.9426H55.812V57.059C55.812 55.4319 57.1922 54.7733 58.3883 54.3762C58.4658 54.352 65.9042 52.0566 81.8027 52.0566C97.6867 52.0566 106.457 54.3472 106.539 54.3665C108.21 54.72 109.14 55.674 109.14 57.059V70.9426H109.145Z" fill="#F9F9FA"/>
<path d="M124.883 102.69H124.07V88.3511C124.07 87.3051 123.217 86.4577 122.176 86.4577L122.099 86.448C121.924 86.4141 104.234 83.005 81.7011 83.005C59.1681 83.005 42.6836 86.4093 42.5238 86.4432L42.4415 86.4528C41.4003 86.4528 40.548 87.3003 40.548 88.3463V102.685H39.7393V88.3463C39.7393 86.8693 40.9306 85.6635 42.4027 85.6441C43.3277 85.4553 59.633 82.1914 81.706 82.1914C103.823 82.1914 121.29 85.465 122.225 85.6441C123.697 85.6635 124.888 86.8693 124.888 88.3463V102.69H124.883Z" fill="#F9F9FA"/>
<path d="M100.389 31.1464C100.389 29.6113 99.7936 27.8195 98.5151 26.4975C96.917 24.8753 95.0962 23.7663 90.4859 23.7663C89.3431 23.7663 87.2026 24.1925 85.5125 24.1925C84.5052 24.1925 83.6432 24.1053 83.2752 23.684C82.5439 22.9141 82.6359 21.8923 82.5875 21.2531C82.5536 20.8947 82.4907 20.7349 82.2969 20.6816C82.1032 20.7349 82.0403 20.8947 82.0064 21.2531C81.958 21.8923 82.05 22.9141 81.3187 23.684C80.9555 24.1102 80.0887 24.1925 79.0862 24.1925C77.3961 24.1925 75.2508 23.7663 74.1128 23.7663C69.5026 23.7663 67.6769 24.8753 66.0836 26.4975C64.8052 27.8195 64.2144 29.6113 64.2144 31.1464C64.2144 31.1706 64.2144 31.1851 64.2144 31.2045C64.2144 32.1052 64.2144 38.9235 64.2144 38.9235H64.9359C64.9359 38.9235 64.965 32.2892 65.0086 31.1173C65.0086 31.0495 65.0182 30.9817 65.0328 30.9042C65.4395 29.7759 67.0376 27.8244 70.5389 27.8195H70.5486C72.0934 27.8195 73.3719 27.8389 74.4663 27.8341C76.2872 27.8292 77.5995 27.7711 78.7715 27.4757C81.4253 26.8365 82.2873 24.454 82.3018 24.4443C82.3163 24.454 83.1783 26.8365 85.8321 27.4757C86.9992 27.7663 88.3116 27.8292 90.1373 27.8341C91.2269 27.8341 92.5053 27.8195 94.0502 27.8195C94.055 27.8195 94.0598 27.8195 94.0598 27.8195C97.5659 27.8244 99.164 29.7759 99.566 30.9042C99.5805 30.9817 99.5902 31.0495 99.5902 31.1173C99.6386 32.2892 99.6628 38.9235 99.6628 38.9235H100.389C100.389 38.9235 100.389 32.1052 100.389 31.2045C100.389 31.1851 100.389 31.1706 100.389 31.1464Z" fill="#F9F9FA"/>
<path fill-rule="evenodd" clip-rule="evenodd" d="M84.9747 128.685C87.4251 127.373 88.4518 126.535 88.9312 124.322C89.1055 123.528 111.203 120.681 111.203 120.681L119.668 119.514C119.668 119.514 105.827 120.894 82.3064 120.894C58.7903 120.894 46.3301 119.514 46.3301 119.514L54.7999 120.681C54.7999 120.681 76.8971 123.533 77.0715 124.322C77.5557 126.535 78.5775 127.373 81.0279 128.685C81.2701 128.816 81.4589 129.179 81.4492 129.426C81.3863 131.136 80.655 132.651 79.2797 133.954C77.1489 135.969 74.2772 138.065 71.1924 138.666C69.6573 138.966 68.0737 139.111 66.5483 139.325C66.5483 139.363 66.5483 139.412 66.5483 139.479C71.9527 139.479 77.3378 139.479 82.7229 139.479C82.9117 139.479 83.1054 139.479 83.2943 139.479C88.6745 139.479 94.0596 139.479 99.464 139.479C99.464 139.412 99.464 139.363 99.464 139.325C97.9386 139.116 96.355 138.966 94.8199 138.666C91.7303 138.065 88.8586 135.969 86.7326 133.954C85.3573 132.651 84.626 131.136 84.5582 129.426C84.5437 129.179 84.7326 128.816 84.9747 128.685Z" fill="#F9F9FA"/>
<path d="M103.498 106.614C104.689 106.614 105.905 106.241 107.067 105.5C106.806 104.967 106.515 104.725 106.196 104.725C105.74 104.725 105.067 105.059 104.244 105.059C103.15 105.059 102.346 104.352 101.944 102.991L104.84 101.577C105.716 101.151 106.292 100.73 106.612 100.129C106.907 99.5629 106.961 98.8607 107.266 98.0811C107.004 97.9406 106.752 97.6017 106.365 97.2143C105.648 96.4733 104.757 96.0859 103.75 96.0859C101.343 96.0859 99.3916 98.207 99.2366 101.248C99.0816 104.439 100.825 106.614 103.498 106.614ZM103.677 97.4951C104.384 97.4951 104.874 98.0569 104.84 98.8704C104.806 99.5435 104.268 100.217 103.353 100.638L101.648 101.432C101.614 101.132 101.595 100.832 101.61 100.546C101.702 98.6961 102.656 97.4951 103.677 97.4951Z" fill="#F9F9FA"/>
<path d="M66.742 101.108C66.742 97.8052 65.1632 96.0571 62.6547 96.3282C60.1511 96.5994 58.582 98.6769 58.582 101.994C58.582 105.297 60.1462 107.05 62.6547 106.774C65.1584 106.507 66.742 104.41 66.742 101.108ZM62.6547 105.277C61.5797 105.393 61.076 104.212 61.076 101.728C61.076 99.2483 61.5845 97.9505 62.6547 97.8343C63.7153 97.718 64.2528 98.8996 64.2528 101.379C64.2528 103.858 63.7298 105.161 62.6547 105.277Z" fill="#F9F9FA"/>
<path d="M67.8367 98.7102V104.042C67.8367 104.739 67.7011 105.417 67.4638 106.032L69.6527 105.867C70.4953 105.804 70.7471 105.446 71.0667 104.328C70.3306 104.332 70.1757 104.003 70.1757 103.131V99.5189C70.1757 97.9838 70.626 97.2187 71.6721 97.1412C72.5292 97.0782 72.9505 97.6593 72.9505 98.9039V103.64C72.9505 104.323 72.8149 104.981 72.5631 105.65L74.7665 105.48C75.6237 105.417 75.8561 105.059 76.1612 103.945C75.3912 103.935 75.2702 103.635 75.2702 102.788V99.2089C75.2702 96.6714 74.3985 95.5092 72.3936 95.6594C71.2314 95.7465 70.4081 96.2695 69.8221 97.301C69.8512 96.8555 69.89 96.4099 69.9723 95.9257C69.6042 96.0419 69.2313 96.1194 68.8294 96.1485C68.6599 96.1581 68.4807 96.1581 68.258 96.1727C67.517 96.2308 67.1974 96.6811 66.9795 97.7707C67.7011 97.732 67.8367 97.9596 67.8367 98.7102Z" fill="#F9F9FA"/>
<path d="M94.8976 98.2886V103.615C94.8976 104.313 94.7475 104.962 94.4569 105.528L96.762 105.751C97.6047 105.833 97.9243 105.509 98.2245 104.463C97.4013 104.332 97.2318 103.974 97.2318 103.107V99.7753C97.2318 98.9908 97.4497 98.5017 97.8371 98.3031C98.21 98.1191 98.6604 98.1627 99.1156 98.0901C99.7839 97.969 100.002 97.3782 100.239 96.1579C100.041 96.1724 99.8517 96.153 99.687 96.1385C99.4158 96.1095 99.1834 96.0707 98.9606 96.0514C97.8855 95.9448 97.411 96.5308 96.8928 98.1433C96.8928 97.2571 96.9267 96.5114 96.9945 95.8915C96.6749 95.9448 96.3407 95.9448 95.9533 95.9061C95.7693 95.8867 95.532 95.848 95.2608 95.8238C94.5731 95.756 94.2874 96.153 94.0308 97.199C94.7814 97.3104 94.8976 97.5574 94.8976 98.2886Z" fill="#F9F9FA"/>
<path d="M108.418 99.683V104.995C108.418 105.717 108.283 106.39 108.046 106.971L110.215 107.295C111.077 107.421 111.329 107.107 111.649 106.027C110.893 105.843 110.772 105.489 110.772 104.588V99.2762C110.772 98.4966 110.908 97.8283 111.14 97.3005L108.932 96.9712C108.113 96.8453 107.857 97.1649 107.537 98.2448C107.842 98.3271 108.041 98.4288 108.162 98.5498C108.399 98.8162 108.418 99.1697 108.418 99.683Z" fill="#F9F9FA"/>
<path d="M111.058 95.605L111.493 94.2927L110.065 94.0797C109.29 93.9634 108.869 94.1281 108.67 94.7382L108.229 96.0506L109.644 96.2636C110.399 96.3702 110.854 96.191 111.058 95.605Z" fill="#F9F9FA"/>
<path d="M117.629 107.33C116.166 107.039 115.813 106.792 115.813 105.504V96.9665C115.813 96.3854 115.934 95.8237 116.2 95.2619L113.871 94.8019C112.709 94.5695 112.389 94.7389 112.036 95.9544C112.97 96.2304 113.077 96.6372 113.077 97.7123V105.988C113.077 106.661 112.956 107.271 112.67 107.833C113.324 107.891 113.939 107.978 114.539 108.095C115.74 108.332 116.941 108.695 118.123 108.928C119.503 109.199 119.871 109.01 120.331 107.315C119.61 107.528 118.689 107.543 117.629 107.33Z" fill="#F9F9FA"/>
<path d="M85.9674 104.279C86.5146 105.078 87.2604 105.553 88.1805 105.664C89.3089 105.8 90.2968 105.296 91.0716 104.381C91.1103 104.362 91.1394 104.337 91.1491 104.318C91.1491 104.725 91.1152 105.146 91.0668 105.548C91.5026 105.427 91.9239 105.427 92.3452 105.427C93.4591 105.427 93.8465 105.291 94.1467 104.013C93.3525 104.013 93.2847 103.679 93.2847 102.822V99.5045C93.2847 98.1873 93.0329 97.1801 92.4518 96.4925C91.1685 95.1559 88.3694 95.0106 87.1636 95.8775C86.8682 96.0905 86.6309 96.2794 86.4275 96.4392C86.5582 96.7636 86.6357 97.1656 86.6357 97.6014C86.6357 98.2648 86.4565 98.8459 86.1853 99.2043C87.396 99.1413 88.166 98.2358 88.2193 97.4706V97.398C88.2144 97.3932 88.2096 97.3883 88.2047 97.3835C88.2096 97.3883 88.2144 97.3883 88.2193 97.3932V96.9573C88.505 96.7201 88.8972 96.5651 89.3331 96.5651C89.7931 96.5651 90.2048 96.7297 90.4905 96.9864H90.4953C90.8876 97.3544 91.0716 97.8532 91.0764 98.6377L88.0401 100.105C87.2023 100.444 86.5485 100.865 86.1756 101.417C85.8221 101.935 85.6672 102.613 85.2749 103.335C85.4928 103.504 85.672 103.858 85.9674 104.279ZM87.5994 102.831C87.7447 102.182 88.4178 101.684 89.3912 101.132C90.3646 100.58 91.2508 100.115 91.2508 100.115C91.2363 100.41 91.2072 101.258 91.1442 101.534C90.7471 103.325 89.5849 104.395 88.5437 104.289C87.8318 104.216 87.4251 103.616 87.5994 102.831Z" fill="#F9F9FA"/>
<path d="M51.7104 109.654C50.6402 109.858 49.9525 109.422 49.9525 108.129C49.9525 108.09 49.9525 108.056 49.9525 108.013H49.9477V100.972C49.9477 100.846 49.9477 100.715 49.9477 100.575C49.3569 99.6399 48.7951 98.8021 48.2818 98.2598C48.3109 98.4341 48.3254 98.6472 48.3254 98.9038V108.332V110.565C48.3254 110.763 48.3254 112.618 47.6426 113.122C47.6765 113.117 47.7104 113.112 47.7491 113.102C49.0034 112.855 49.7976 111.756 49.8121 110.981C49.8024 110.981 49.7976 110.971 49.7927 110.967C49.7976 110.971 49.8073 110.971 49.8121 110.976C49.8121 110.971 49.8121 110.967 49.8121 110.962C49.8363 110.976 49.8654 110.996 49.8847 111.015C50.4223 111.286 51.0179 111.189 51.4635 111.078C52.1753 110.899 52.9502 110.235 52.9502 109.16C52.9502 109.044 52.9308 108.938 52.9017 108.836C52.8436 109.16 52.2577 109.553 51.7104 109.654Z" fill="#F9F9FA"/>
<path d="M56.0397 97.4267L56.1318 102.405C56.1318 102.516 56.1318 102.628 56.1366 102.744C56.6935 103.669 57.2601 104.555 57.8364 105.281C57.6959 104.952 57.662 104.419 57.662 103.814V96.463C57.662 95.3347 57.7492 94.5309 58.2093 93.8965L56.5676 94.2209C55.4005 94.4485 55.0712 94.7681 54.708 96.1918C54.7274 96.187 54.7613 96.1822 54.7806 96.1773C55.7831 95.9836 56.0397 96.3178 56.0397 97.4267Z" fill="#F9F9FA"/>
<path d="M59.4781 107.553C55.7735 105.625 53.1245 95.4317 48.524 95.1751C46.369 95.0589 44.8774 96.0806 44.2866 97.0443H44.2915C44.7079 96.8215 45.1728 96.686 45.6668 96.6521C46.4658 96.5988 47.2261 96.8216 47.8412 97.238C51.0567 98.9329 54.6936 111.683 62.3837 108.047C61.7106 108.318 60.3837 108.022 59.4781 107.553Z" fill="#F9F9FA"/>
<path d="M79.1877 106.172V104.487C79.7107 105.126 80.534 105.47 81.5074 105.436C83.7447 105.363 85.1103 103.572 85.1103 100.376C85.1103 97.1457 83.798 95.4218 81.58 95.4944C80.5195 95.5283 79.6817 96.0125 79.1248 96.8697C79.1054 95.877 78.6357 95.7075 77.4105 95.751C77.178 95.7559 76.9213 95.7801 76.6502 95.7898C76.902 96.4387 76.9359 97.0585 76.9359 97.7171V106.666C76.9359 107.407 76.8487 108.129 76.563 108.932L78.6986 108.865C79.5219 108.84 79.827 108.458 80.0933 107.441C79.3039 107.383 79.1877 107.044 79.1877 106.172ZM79.1877 100.134C79.1877 98.1481 79.8948 97.0343 80.9214 97.0004C81.982 96.9617 82.6551 98.0706 82.6551 100.138C82.6551 102.763 82.0837 104.08 80.9069 104.114C79.8802 104.148 79.1926 103.078 79.1926 101.126V100.134H79.1877Z" fill="#F9F9FA"/>
<path d="M70.0981 41.6355C69.1441 41.0059 68.7664 40.0762 68.6453 39.2336C68.563 38.6428 68.6017 37.5968 69.3911 36.7155C69.9819 36.0569 70.8342 35.5968 72.2289 35.4564C72.81 35.3983 73.1587 35.4031 73.5945 35.4177C73.9529 35.4322 74.2628 35.4854 74.5437 35.4903C74.6502 35.4903 74.689 35.5339 74.6938 35.5823C74.6986 35.6501 74.6793 35.7615 74.6793 36.0666C74.6841 36.3523 74.7277 36.8317 74.7229 37.006C74.7229 37.1368 74.7132 37.2094 74.626 37.2142C74.5534 37.2191 74.5292 37.1513 74.5195 37.0302C74.4904 36.759 74.3451 36.4685 74.0933 36.2603C73.764 35.9794 73.0134 35.8099 72.1562 35.8971C71.3427 35.9794 70.8342 36.2312 70.4661 36.6283C69.8608 37.2917 69.793 38.1392 69.9044 38.9769C70.1804 41.035 71.8899 41.8582 73.057 41.7469C73.8366 41.6694 74.3015 41.5483 74.626 41.1173C74.7616 40.9382 74.8585 40.6815 74.8778 40.5217C74.8972 40.3813 74.9069 40.3425 74.9795 40.3377C75.0425 40.3377 75.0618 40.3909 75.0667 40.4636C75.0764 40.5701 75.028 41.3352 74.965 41.6355C74.9311 41.7904 74.8972 41.834 74.7568 41.9067C74.4178 42.0762 73.764 42.1924 73.2023 42.2456C72.0158 42.357 70.994 42.2166 70.0981 41.6355Z" fill="#F9F9FA"/>
<path d="M78.016 39.4994C77.9724 39.5042 77.9531 39.5188 77.9385 39.572C77.7981 39.9933 77.6528 40.4195 77.5172 40.8408C77.4397 41.0635 77.4058 41.2718 77.4107 41.3783C77.4155 41.5333 77.5027 41.6446 77.7739 41.6301C77.8175 41.6301 77.8659 41.6253 77.9095 41.6253C78.016 41.6204 78.0402 41.6398 78.0451 41.6882C78.0451 41.756 77.9966 41.7754 77.8998 41.7802C77.6189 41.7899 77.2412 41.7851 76.97 41.7996C76.8731 41.8044 76.3937 41.8577 75.9385 41.8916C75.8271 41.8964 75.7739 41.8868 75.769 41.8141C75.7642 41.7609 75.7981 41.7415 75.8659 41.7366C75.9482 41.7318 76.0693 41.7173 76.1371 41.7027C76.539 41.6253 76.6843 41.3202 76.8344 40.8747C77.4736 39.0103 78.1565 37.1508 78.878 35.2961C78.9797 35.0394 79.033 34.9426 79.1298 34.9377C79.217 34.9329 79.2751 35.0103 79.372 35.2089C79.6286 35.6786 81.1686 39.2137 81.7207 40.5405C82.0597 41.325 82.3115 41.4461 82.4955 41.4897C82.6263 41.5187 82.757 41.5284 82.8635 41.5284C82.9362 41.5284 82.9798 41.5381 82.9798 41.6011C82.9798 41.6689 82.8974 41.6834 82.573 41.6834C82.2582 41.6834 81.619 41.6785 80.9168 41.6737C80.7618 41.6688 80.6553 41.6688 80.6504 41.6107C80.6504 41.5575 80.6843 41.5381 80.7763 41.5284C80.8345 41.5139 80.8974 41.4316 80.8538 41.325C80.6069 40.71 80.3599 40.0999 80.1081 39.4849C80.0887 39.4413 80.0596 39.4268 80.016 39.4268C79.3526 39.451 78.6843 39.4703 78.016 39.4994ZM79.8369 39.0055C79.8804 39.0006 79.8901 38.9764 79.8804 38.9522C79.5947 38.2403 79.2993 37.5285 78.9991 36.8215C78.9846 36.7876 78.9749 36.744 78.9506 36.744C78.9264 36.744 78.9071 36.7876 78.8974 36.8263C78.6407 37.5478 78.3841 38.2742 78.1419 39.0006C78.1322 39.0393 78.1419 39.0636 78.1758 39.0636C78.7327 39.0345 79.2848 39.0151 79.8369 39.0055Z" fill="#F9F9FA"/>
<path d="M85.5414 38.0708C85.5559 38.0708 85.5704 38.0708 85.5849 38.0708C85.8997 37.756 87.3041 36.5211 87.5995 36.2403C87.8755 35.9691 88.0934 35.7657 88.1031 35.6156C88.108 35.5187 88.0741 35.4558 87.9821 35.4364C87.8997 35.4122 87.861 35.3928 87.8658 35.3396C87.8707 35.2766 87.9191 35.2621 88.0208 35.2718C88.2145 35.2814 88.7327 35.3444 88.9845 35.3589C89.2751 35.3783 89.7884 35.3928 90.0838 35.417C90.1758 35.4267 90.2387 35.4461 90.2387 35.509C90.2339 35.5672 90.1855 35.5817 90.0886 35.5768C89.9579 35.5672 89.7206 35.5817 89.5414 35.6301C89.2412 35.7124 88.9119 35.8722 88.4857 36.2112C88.1758 36.4485 86.7133 37.6785 86.3937 37.9836C86.7181 38.4049 88.3695 40.3419 88.6794 40.6954C89.0426 41.0877 89.4107 41.5138 89.8659 41.7366C90.1177 41.8625 90.292 41.9012 90.3986 41.9109C90.4615 41.9157 90.5099 41.9399 90.5051 41.9932C90.5003 42.0562 90.4518 42.0755 90.2872 42.061C90.0354 42.0368 89.7835 42.0174 89.5269 41.9932C89.2654 41.9738 89.1056 41.9593 88.9264 41.9303C88.4567 41.8528 88.2339 41.6445 87.8755 41.291C87.522 40.923 85.861 38.8262 85.6673 38.5647C85.6382 38.5211 85.6043 38.4727 85.5704 38.4291C85.5559 38.4291 85.5414 38.4291 85.522 38.4291C85.5123 38.6954 85.5026 38.9569 85.4929 39.2233C85.4639 40.0223 85.4397 40.7148 85.4493 41.0925C85.459 41.3346 85.5317 41.5332 85.7496 41.5719C85.8707 41.5961 86.0644 41.6203 86.1757 41.6252C86.2435 41.63 86.2871 41.6591 86.2871 41.7027C86.2823 41.7608 86.2145 41.785 86.1176 41.7801C85.6237 41.7608 85.0765 41.7123 84.8537 41.7075C84.6551 41.6978 84.1031 41.7123 83.7496 41.7075C83.6382 41.7075 83.5752 41.6784 83.5752 41.6203C83.5752 41.5768 83.614 41.5477 83.7157 41.5525C83.8513 41.5574 83.953 41.5429 84.0353 41.5235C84.2096 41.4896 84.2629 41.3007 84.3016 41.0489C84.3549 40.6857 84.3694 39.9932 84.3888 39.1894C84.4033 38.6761 84.413 38.1676 84.4275 37.6543C84.4566 36.3274 84.4663 36.0805 84.4566 35.8044C84.4469 35.509 84.3694 35.3638 84.0643 35.296C83.9917 35.2766 83.8271 35.2669 83.7011 35.2621C83.5994 35.2572 83.5413 35.2427 83.5462 35.1798C83.5462 35.1168 83.614 35.0974 83.7544 35.1023C84.2532 35.1071 84.844 35.1555 85.0668 35.1604C85.2944 35.1652 85.8852 35.1604 86.2048 35.1749C86.3356 35.1798 86.3985 35.1991 86.3937 35.2621C86.3937 35.3202 86.3356 35.3396 86.2581 35.3347C86.1661 35.3299 86.108 35.3396 85.9966 35.3492C85.7448 35.3831 85.6624 35.5284 85.6334 35.8335C85.6043 36.1144 85.5946 36.3565 85.5462 37.6833C85.5462 37.8141 85.5414 37.94 85.5414 38.0708Z" fill="#F9F9FA"/>
<path d="M91.9095 38.1299C92.0451 36.8127 92.0693 36.5657 92.079 36.2897C92.0935 35.9895 92.0306 35.8442 91.7303 35.7522C91.6577 35.728 91.4979 35.7038 91.3671 35.6892C91.2654 35.6795 91.2073 35.6553 91.2122 35.5972C91.217 35.5343 91.2848 35.5246 91.4252 35.5391C91.677 35.5633 91.9482 35.6021 92.1807 35.6263C92.4228 35.6602 92.6407 35.6941 92.7666 35.7038C93.0669 35.7328 94.9265 35.9604 95.1057 35.9798C95.2848 35.9846 95.435 35.9895 95.5124 35.9846C95.5609 35.9846 95.619 35.9653 95.6674 35.9701C95.711 35.9749 95.7158 36.0137 95.711 36.0573C95.7013 36.1154 95.6384 36.2171 95.556 36.6093C95.5318 36.6965 95.464 37.0742 95.4301 37.1711C95.4107 37.2146 95.3865 37.2631 95.3236 37.2534C95.2606 37.2437 95.2461 37.2001 95.2558 37.1226C95.2655 37.0597 95.2752 36.9144 95.2461 36.803C95.2025 36.6384 95.125 36.5222 94.665 36.4108C94.51 36.372 93.5366 36.2316 93.3526 36.2122C93.3042 36.2074 93.28 36.2316 93.2751 36.2945C93.188 37.0258 93.1056 37.757 93.0185 38.4882C93.0136 38.5463 93.0136 38.5851 93.0766 38.5899C93.2751 38.6141 94.3163 38.74 94.5294 38.7497C94.7473 38.7594 94.8877 38.7546 94.9798 38.6819C95.0524 38.619 95.096 38.5851 95.1396 38.5899C95.1735 38.5948 95.1977 38.619 95.1928 38.6722C95.1831 38.7207 95.1299 38.8514 95.033 39.2921C94.9991 39.4616 94.9265 39.8054 94.9168 39.8683C94.9071 39.9361 94.8926 40.033 94.8103 40.0185C94.7473 40.0136 94.7328 39.9749 94.7425 39.9313C94.7473 39.8441 94.7618 39.7279 94.7473 39.6165C94.7279 39.4374 94.6214 39.2872 94.2921 39.2098C94.1226 39.171 93.2267 39.05 93.0088 39.0257C92.9652 39.0209 92.9507 39.0548 92.9458 39.1081C92.9168 39.3357 92.8926 39.5633 92.8683 39.7957C92.8344 40.0863 92.7327 40.8853 92.7134 41.1371C92.665 41.7376 92.7909 41.878 93.6819 41.9894C93.9095 42.0184 94.2776 42.0669 94.5149 41.9942C94.757 41.9216 94.8877 41.7569 94.9991 41.4083C95.033 41.3163 95.0524 41.2872 95.1105 41.2921C95.1831 41.3017 95.1735 41.3695 95.1589 41.4567C95.1299 41.6552 94.9749 42.2315 94.912 42.401C94.8199 42.6141 94.7376 42.6044 94.4083 42.5608C93.7546 42.4688 93.28 42.3962 92.9071 42.3429C92.5342 42.2799 92.263 42.2412 92.0015 42.2121C91.9046 42.2024 91.7158 42.1782 91.5027 42.1686C91.3042 42.1492 91.0766 42.1443 90.8974 42.125C90.7811 42.1153 90.7279 42.0814 90.7327 42.0233C90.7376 41.9797 90.7763 41.9555 90.878 41.9652C91.0088 41.9797 91.1153 41.97 91.1928 41.9603C91.372 41.9458 91.4349 41.7569 91.4979 41.51C91.5802 41.1516 91.648 40.464 91.7303 39.665C91.803 39.1468 91.8562 38.6383 91.9095 38.1299Z" fill="#F9F9FA"/>
<path d="M62.1461 71.9608C61.9911 71.9172 61.9572 71.8785 61.9281 71.6751C61.8555 71.1715 61.8168 70.6194 61.8022 70.4693C61.7926 70.3337 61.8071 70.2272 61.8797 70.2126C61.962 70.203 61.9814 70.2853 61.996 70.3531C62.0105 70.4741 62.0734 70.6582 62.1461 70.8083C62.4415 71.4572 63.0226 71.6267 63.594 71.554C64.4221 71.4475 64.7611 70.8373 64.6982 70.3531C64.6449 69.9027 64.456 69.5008 63.6037 69.002C63.4439 68.91 63.2889 68.8228 63.1291 68.7308C61.9911 68.0819 61.5407 67.496 61.4342 66.7551C61.2889 65.7527 62.0734 64.9004 63.4197 64.7309C64.0493 64.6486 64.4609 64.697 64.7175 64.7309C64.8095 64.7357 64.858 64.7599 64.8677 64.8229C64.8822 64.944 64.8725 65.2151 64.9597 65.927C64.9839 66.1255 64.9645 66.203 64.8822 66.2127C64.8144 66.2224 64.7805 66.1691 64.7708 66.0626C64.7611 65.9803 64.6788 65.7042 64.4512 65.4863C64.2865 65.3314 63.9766 65.0892 63.3471 65.1667C62.6352 65.2587 62.2526 65.7091 62.3301 66.2611C62.3882 66.6824 62.6497 66.9681 63.5117 67.4427C63.6086 67.496 63.7006 67.5492 63.7974 67.6025C65.0468 68.2902 65.5214 68.8809 65.6231 69.7526C65.6861 70.2853 65.5553 70.939 64.9403 71.4523C64.5141 71.801 64.0105 71.9463 63.5262 72.0141C62.9887 72.0867 62.5625 72.077 62.1461 71.9608Z" fill="#F9F9FA"/>
<path d="M69.1435 64.7647C68.6641 64.8179 68.1847 64.8761 67.7101 64.939C67.1532 65.0116 66.9304 65.0843 66.8045 65.3022C66.7222 65.4475 66.6883 65.5637 66.6737 65.6412C66.6592 65.7187 66.635 65.7574 66.5769 65.7622C66.5091 65.7671 66.4897 65.7283 66.4752 65.6267C66.4607 65.4814 66.5527 64.6242 66.5623 64.5516C66.5769 64.4305 66.6011 64.3724 66.6592 64.3676C66.7367 64.3579 66.8432 64.4402 67.0854 64.4354C67.3662 64.4354 67.7391 64.416 68.0539 64.387C69.3275 64.2659 70.606 64.1594 71.8845 64.0674C72.1944 64.048 72.4026 64.0044 72.5479 63.9753C72.6932 63.9366 72.7707 63.9124 72.8094 63.9124C72.8724 63.9075 72.8917 63.9657 72.8966 64.1012C72.9111 64.2949 72.9256 64.9342 72.9402 65.1715C72.9353 65.2635 72.9208 65.3216 72.8627 65.3264C72.7852 65.3313 72.761 65.2877 72.7465 65.1472C72.7416 65.1133 72.7319 65.0794 72.7319 65.0455C72.698 64.8083 72.422 64.5661 71.56 64.6097C71.1581 64.6291 70.7464 64.6533 70.3445 64.6775C70.4462 65.9366 70.5479 67.1956 70.6496 68.4499C70.7174 69.2973 70.7803 70.0237 70.8578 70.4159C70.9062 70.6726 70.9789 70.8663 71.2598 70.8856C71.3905 70.8953 71.5987 70.8953 71.7343 70.8856C71.8312 70.876 71.8845 70.9002 71.8845 70.9486C71.8893 71.0115 71.8167 71.0454 71.715 71.0551C71.1048 71.1036 70.5237 71.1229 70.2622 71.1423C70.0491 71.1617 69.4728 71.2392 69.0999 71.2779C68.9837 71.2876 68.9111 71.2682 68.9111 71.2053C68.9062 71.1617 68.9401 71.1278 69.0515 71.1132C69.1919 71.1036 69.2985 71.0697 69.3808 71.0503C69.5648 70.997 69.5987 70.7888 69.6036 70.5176C69.6181 70.1302 69.5503 69.399 69.4728 68.5564C69.3663 67.278 69.2549 66.0189 69.1435 64.7647Z" fill="#F9F9FA"/>
<path d="M74.8919 66.5219C74.8192 65.1176 74.8047 64.8609 74.7708 64.5656C74.7321 64.2556 74.6498 64.1103 74.3301 64.0619C74.2478 64.0474 74.0832 64.0474 73.9476 64.0571C73.841 64.0619 73.7829 64.0474 73.7781 63.9844C73.7732 63.9215 73.841 63.8973 73.9863 63.8876C74.5045 63.8585 75.1147 63.8537 75.4052 63.8392C75.6377 63.8295 76.2478 63.7714 76.5965 63.7568C76.7418 63.752 76.8096 63.7665 76.8144 63.8295C76.8144 63.8924 76.7612 63.9167 76.6595 63.9167C76.5529 63.9215 76.4948 63.9312 76.3834 63.9554C76.1219 64.0135 76.0541 64.1685 76.0493 64.4978C76.0444 64.7932 76.0541 65.0498 76.1171 66.4541C76.1365 66.8851 76.1558 67.3161 76.1752 67.7471C76.2382 69.0836 76.5336 69.6357 77.0033 69.9844C77.4343 70.3088 77.8605 70.333 78.1801 70.3233C78.5869 70.3088 79.0857 70.1684 79.4489 69.7907C79.9477 69.2677 79.9622 68.4396 79.9428 67.4904C79.938 67.103 79.9283 66.7205 79.9186 66.3379C79.8896 64.9336 79.8847 64.6769 79.8605 64.3815C79.8363 64.0668 79.7491 63.9215 79.4295 63.8634C79.352 63.844 79.1874 63.8392 79.0808 63.844C78.9743 63.8489 78.9162 63.8295 78.9113 63.7665C78.9113 63.7036 78.9791 63.6794 79.1147 63.6794C79.6087 63.6648 80.2189 63.6794 80.2285 63.6842C80.3448 63.6794 80.9549 63.6455 81.3327 63.6406C81.4683 63.6406 81.5361 63.66 81.5361 63.7229C81.5361 63.7907 81.478 63.8053 81.3617 63.8101C81.2552 63.8101 81.1971 63.8198 81.0808 63.844C80.8193 63.8924 80.7419 64.0474 80.7322 64.3718C80.7128 64.6672 80.7176 64.9239 80.7419 66.3282C80.7467 66.6575 80.7467 66.9868 80.7564 67.3161C80.7709 68.3379 80.6789 69.4275 79.9138 70.1103C79.2648 70.6865 78.6062 70.8027 78.0057 70.827C77.5118 70.8415 76.6304 70.8512 75.9234 70.2749C75.4294 69.873 75.0372 69.2096 74.9645 67.873C74.9403 67.4178 74.9161 66.9675 74.8919 66.5219Z" fill="#F9F9FA"/>
<path d="M83.8944 66.3088C83.9041 64.9044 83.9041 64.6478 83.8896 64.3524C83.8702 64.0376 83.7927 63.8924 83.4779 63.8246C83.4004 63.8004 83.2358 63.8004 83.1002 63.7955C82.9888 63.7955 82.9355 63.7761 82.9355 63.7132C82.9355 63.6502 83.0033 63.6309 83.1486 63.6309C83.662 63.6309 84.2721 63.6648 84.5433 63.6696C84.8484 63.6744 85.4537 63.6551 86.0397 63.6648C87.2504 63.689 88.8775 63.7422 89.88 64.8415C90.34 65.3451 90.7516 66.1296 90.6935 67.2289C90.6306 68.3911 90.0882 69.2482 89.5507 69.7518C89.1003 70.1683 88.1124 70.7736 86.4029 70.7349C86.0639 70.7252 85.691 70.6913 85.3375 70.6574C84.984 70.6235 84.6644 70.5896 84.4319 70.5896C84.3254 70.5896 84.122 70.5847 83.8992 70.5944C83.6862 70.5944 83.444 70.6138 83.26 70.6138C83.1389 70.6138 83.076 70.5848 83.076 70.5218C83.076 70.4734 83.1099 70.4492 83.2213 70.4492C83.3617 70.4492 83.4731 70.4298 83.5554 70.4153C83.7394 70.3765 83.7879 70.178 83.8266 69.9068C83.875 69.5194 83.8799 68.793 83.8847 67.9407C83.8896 67.3935 83.8896 66.8511 83.8944 66.3088ZM85.076 67.3354C85.0615 68.3136 85.0615 69.0254 85.0663 69.1998C85.076 69.4322 85.0857 69.8003 85.1583 69.902C85.2746 70.0811 85.6378 70.2797 86.369 70.2942C87.3133 70.3184 87.9477 70.1538 88.5289 69.6937C89.1439 69.2095 89.3666 68.3766 89.4102 67.4274C89.4635 66.2555 88.9841 65.4759 88.5821 65.0885C87.725 64.2459 86.6257 64.1006 85.8702 64.0909C85.6765 64.0861 85.3182 64.1103 85.2407 64.1442C85.1535 64.1781 85.1196 64.2217 85.1196 64.3282C85.1051 64.643 85.0954 65.442 85.0809 66.1732C85.0809 66.5606 85.076 66.948 85.076 67.3354Z" fill="#F9F9FA"/>
<path d="M93.1926 66.6473C93.2846 65.2478 93.2991 64.9911 93.2991 64.6957C93.304 64.381 93.2168 64.2163 93.0085 64.1582C92.902 64.1243 92.7761 64.1098 92.6647 64.1001C92.5679 64.0953 92.5097 64.0711 92.5146 63.9984C92.5194 63.9451 92.5969 63.9306 92.7519 63.9403C93.1151 63.9645 93.7253 64.0323 94.0061 64.0517C94.2483 64.0662 94.8197 64.0807 95.1878 64.1146C95.3137 64.1243 95.3911 64.1485 95.3863 64.2066C95.3815 64.2793 95.3233 64.2938 95.2265 64.2841C95.1296 64.2744 95.0473 64.2793 94.9359 64.289C94.6696 64.3132 94.5824 64.4633 94.5388 64.7877C94.4953 65.0783 94.4807 65.3398 94.3742 66.7393C94.3354 67.2768 94.2919 67.8192 94.2531 68.3567C94.1853 69.2526 94.132 69.9789 94.1369 70.376C94.1466 70.6278 94.1998 70.7973 94.4759 70.8554C94.6066 70.8797 94.8052 70.9184 94.9456 70.9281C95.0425 70.9378 95.0909 70.9668 95.0861 71.0152C95.0812 71.0782 95.0086 71.1024 94.9069 71.0927C94.2967 71.0443 93.7156 70.9717 93.4638 70.9571C93.2507 70.9426 92.6696 70.9281 92.3015 70.9087C92.1804 70.9039 92.1175 70.87 92.1223 70.807C92.1223 70.7586 92.1611 70.7344 92.2773 70.7441C92.4177 70.7489 92.5291 70.7392 92.6114 70.7295C92.8003 70.7005 92.8633 70.5504 92.9117 70.2889C92.9843 69.9063 93.0328 69.1751 93.0909 68.2841C93.1199 67.7272 93.1587 67.1896 93.1926 66.6473Z" fill="#F9F9FA"/>
<path d="M96.7616 67.7425C96.8972 66.1784 98.1708 64.2171 101.081 64.5513C103.493 64.837 104.791 66.3817 104.486 68.4737C104.181 70.5657 102.476 71.9991 100.147 71.7279C97.5171 71.4325 96.6212 69.3744 96.7616 67.7425ZM103.125 68.6335C103.406 66.5851 102.336 65.1469 100.747 64.9629C99.6382 64.8321 98.3161 65.297 98.0934 67.5827C97.9093 69.4955 98.8246 71.1081 100.587 71.3163C101.236 71.3938 102.767 71.2727 103.125 68.6335Z" fill="#F9F9FA"/>
</g>
<defs>
<clipPath id="clip0_406_2380">
<rect width="163" height="163" fill="white"/>
</clipPath>
</defs>
</svg>
