<svg width="241" height="90" viewBox="0 0 241 90" fill="none" xmlns="http://www.w3.org/2000/svg">
<path d="M21.8876 2.38613H220.044V21.8428H222.375V0H19.5562V21.8428H21.8876V2.38613Z" fill="#E3E3E3"/>
<path d="M220.044 87.6132H21.8876V69.3496H19.5562V89.9993H222.375V69.3496H220.044V87.6132Z" fill="#E3E3E3"/>
<path d="M9.67942 51.0651C7.51107 51.0651 5.70977 50.6211 4.28233 49.7263C2.85489 48.8315 1.7877 47.583 1.06718 45.9668C0.353462 44.3575 0 42.4708 0 40.3136C0 38.1564 0.353462 36.2836 1.06718 34.6882C1.78091 33.0928 2.85489 31.8581 4.28233 30.9772C5.70977 30.0963 7.51787 29.6523 9.70661 29.6523C11.7594 29.6523 13.5063 30.0963 14.9474 30.9772C16.3816 31.8581 17.476 33.1067 18.2169 34.709C18.9578 36.3113 19.3317 38.1911 19.3317 40.3483C19.3317 42.5055 18.9578 44.3853 18.2033 45.9876C17.4488 47.5899 16.3544 48.8385 14.9202 49.7333C13.4791 50.6211 11.7322 51.0651 9.67942 51.0651ZM9.67942 50.7737C11.372 50.7737 12.6091 49.9483 13.3772 48.2974C14.1453 46.6466 14.5327 43.9968 14.5327 40.3414C14.5327 36.6928 14.1521 34.0431 13.3908 32.4061C12.6295 30.7622 11.3992 29.9437 9.70661 29.9437C7.99368 29.9437 6.74977 30.7622 5.96807 32.4061C5.18638 34.05 4.79893 36.6928 4.79893 40.3414C4.79893 43.9899 5.18638 46.6466 5.95448 48.2974C6.72258 49.9483 7.96649 50.7737 9.67942 50.7737Z" fill="#E3E3E3"/>
<path d="M31.5738 50.773V50.4817H32.7702C33.1916 50.4817 33.5383 50.3776 33.8101 50.1626C34.0888 49.9476 34.2248 49.4274 34.2248 48.588V30.262H32.3963C30.8533 30.262 29.7317 30.5742 29.0248 31.1915C28.3179 31.8158 27.9236 32.8632 27.8285 34.3406L27.7401 35.6239H27.4614L27.6585 29.9707H45.3317L45.5288 35.6239H45.2433L45.1549 34.3406C45.0598 32.8632 44.6587 31.8158 43.9586 31.1915C43.2517 30.5672 42.1301 30.262 40.5871 30.262H38.7586V48.588C38.7586 49.4204 38.8946 49.9476 39.1733 50.1626C39.4519 50.3776 39.7986 50.4817 40.2133 50.4817H41.4096V50.773H31.5738Z" fill="#E3E3E3"/>
<path d="M52.897 50.773V50.4817H54.0933C54.4944 50.4817 54.8342 50.3846 55.1197 50.1904C55.4052 49.9961 55.5479 49.5106 55.5479 48.7337V32.0378C55.5479 31.2609 55.4052 30.7684 55.1197 30.5672C54.8342 30.3661 54.4944 30.262 54.0933 30.262H52.897V29.9707H62.7463V30.262H61.55C61.1286 30.262 60.7819 30.3661 60.4964 30.5811C60.2109 30.7961 60.0682 31.3164 60.0682 32.1557V41.2424L66.6072 34.0493C67.1782 33.4112 67.6132 32.8632 67.9055 32.4193C68.1978 31.9753 68.3473 31.5938 68.3473 31.2817C68.3473 30.8932 68.1434 30.6297 67.7356 30.484C67.3277 30.3383 66.58 30.269 65.4925 30.269V29.9776H72.5413V30.269C72.0247 30.269 71.5761 30.3175 71.1886 30.4146C70.8012 30.5117 70.373 30.7406 69.9039 31.1013C69.4349 31.462 68.8436 32.0378 68.1162 32.8354L63.8883 37.4967L69.6864 46.8748C70.2982 47.8458 70.7876 48.595 71.1682 49.1152C71.5489 49.6424 71.8752 49.9961 72.1539 50.1904C72.4326 50.3846 72.7112 50.4817 72.9967 50.4817H73.0511V50.773H71.5081C70.0603 50.773 68.9455 50.6828 68.1502 50.4956C67.3617 50.3083 66.75 50.0169 66.3217 49.6216C65.8935 49.2262 65.4993 48.7129 65.139 48.0956L60.911 40.7568L60.0546 41.6863V48.588C60.0546 49.4204 60.1973 49.9476 60.4828 50.1626C60.7683 50.3776 61.1218 50.4817 61.5364 50.4817H62.7327V50.773H52.897Z" fill="#E3E3E3"/>
<path d="M80.0454 43.108V42.5254H87.4681V43.108H80.0454Z" fill="#E3E3E3"/>
<path d="M95.2646 50.773V50.4817H96.461C96.8824 50.4817 97.2291 50.3776 97.501 50.1626C97.7797 49.9476 97.9156 49.4274 97.9156 48.588V32.0378C97.9156 31.2609 97.7729 30.7684 97.4874 30.5672C97.2019 30.3661 96.862 30.262 96.461 30.262H95.2646V29.9707H104.686C107.847 29.9707 110.321 30.8169 112.108 32.5025C113.896 34.195 114.793 36.6852 114.793 39.9869C114.793 42.1233 114.413 43.9961 113.651 45.6123C112.89 47.2216 111.755 48.484 110.253 49.3996C108.751 50.3152 106.895 50.7661 104.686 50.7661H95.2646V50.773ZM102.429 50.4817H104.026C105.454 50.4817 106.603 50.1349 107.479 49.4343C108.356 48.7337 108.989 47.61 109.376 46.0701C109.763 44.5233 109.961 42.5048 109.961 39.9938C109.961 37.6632 109.763 35.7834 109.376 34.3545C108.989 32.9256 108.35 31.8852 107.479 31.2401C106.603 30.588 105.461 30.262 104.054 30.262H102.429V50.4817Z" fill="#E3E3E3"/>
<path d="M123.44 50.773V50.4817H125.207C125.608 50.4817 125.948 50.3776 126.234 50.1626C126.519 49.9476 126.662 49.4274 126.662 48.588V32.0378C126.662 31.2609 126.512 30.7684 126.22 30.5672C125.928 30.3661 125.588 30.262 125.207 30.262H123.44V29.9707H130.693L140.8 45.6747V32.0378C140.8 31.2609 140.651 30.7684 140.359 30.5672C140.066 30.3661 139.726 30.262 139.346 30.262H137.205V29.9707H144.654V30.262H142.54C142.139 30.262 141.8 30.3661 141.514 30.5811C141.229 30.7961 141.086 31.3164 141.086 32.1557V50.773H139.373L126.954 31.4898V48.588C126.954 49.4204 127.097 49.9476 127.382 50.1626C127.668 50.3776 128.008 50.4817 128.409 50.4817H130.89V50.773H123.44Z" fill="#E3E3E3"/>
<path d="M152.213 50.773V50.4817H153.409C153.831 50.4817 154.177 50.3776 154.449 50.1626C154.721 49.9476 154.864 49.4274 154.864 48.588V32.1557C154.864 31.3233 154.728 30.7961 154.449 30.5811C154.171 30.3661 153.824 30.262 153.409 30.262H152.213V29.9707H162.062V30.262H160.866C160.444 30.262 160.098 30.3661 159.826 30.5811C159.547 30.7961 159.411 31.3164 159.411 32.1557V48.588C159.411 49.4204 159.547 49.9476 159.826 50.1626C160.105 50.3776 160.451 50.4817 160.866 50.4817H162.062V50.773H152.213Z" fill="#E3E3E3"/>
<path d="M169.94 50.773V50.4817H171.137C171.558 50.4817 171.905 50.3776 172.177 50.1626C172.449 49.9476 172.591 49.4274 172.591 48.588V32.0378C172.591 31.2609 172.449 30.7684 172.163 30.5672C171.878 30.3661 171.538 30.262 171.137 30.262H169.94V29.9707H178.702C181.346 29.9707 183.311 30.5256 184.582 31.6285C185.86 32.7383 186.492 34.2435 186.492 36.1441C186.492 37.3094 186.213 38.3984 185.663 39.4042C185.112 40.4169 184.222 41.2354 182.991 41.8667C181.761 42.4979 180.123 42.8169 178.063 42.8169H177.091V48.7337C177.091 49.5106 177.241 49.9961 177.547 50.1904C177.853 50.3846 178.206 50.4817 178.6 50.4817H180.34V50.773H169.94ZM177.112 42.5256H177.798C179.205 42.5256 180.211 42.0539 180.809 41.1106C181.408 40.1672 181.707 38.5927 181.707 36.373C181.707 34.1811 181.442 32.6135 180.905 31.6701C180.374 30.7268 179.477 30.2551 178.22 30.2551H177.105V42.5256H177.112Z" fill="#E3E3E3"/>
<path d="M194.438 50.773V50.4817H195.634C196.015 50.4817 196.355 50.3846 196.647 50.1904C196.939 49.9961 197.089 49.5106 197.089 48.7337V32.0378C197.089 31.2609 196.939 30.7684 196.647 30.5672C196.355 30.3661 196.015 30.262 195.634 30.262H194.438V29.9707H203.628C206.333 29.9707 208.311 30.4354 209.569 31.3511C210.826 32.2736 211.452 33.6123 211.452 35.3603C211.452 36.3869 211.255 37.2609 210.867 37.9823C210.48 38.7036 209.963 39.2932 209.324 39.758C208.685 40.2227 207.985 40.5904 207.224 40.8678L210.391 46.3753C211.098 47.6169 211.649 48.5325 212.064 49.1152C212.471 49.6979 212.804 50.0724 213.063 50.2389C213.321 50.4054 213.593 50.4886 213.878 50.4886H213.933V50.7799H212.988C211.846 50.7799 210.888 50.7106 210.106 50.5788C209.324 50.4401 208.658 50.1695 208.107 49.7603C207.557 49.351 207.061 48.7406 206.626 47.9221L202.941 41.0482H201.602V48.7406C201.602 49.5175 201.752 50.0031 202.044 50.1973C202.337 50.3915 202.676 50.4886 203.057 50.4886H204.287V50.7799H194.438V50.773ZM201.602 40.7499H203.2C204.416 40.7499 205.3 40.3337 205.837 39.4944C206.381 38.662 206.653 37.3302 206.653 35.506C206.653 33.6817 206.374 32.3499 205.824 31.5175C205.273 30.6852 204.376 30.262 203.139 30.262H201.596V40.7499H201.602Z" fill="#E3E3E3"/>
<path d="M231.348 51.0651C229.179 51.0651 227.378 50.6211 225.951 49.7263C224.523 48.8315 223.449 47.583 222.736 45.9668C222.022 44.3575 221.662 42.4708 221.662 40.3136C221.662 38.1564 222.022 36.2836 222.736 34.6882C223.449 33.0928 224.523 31.8581 225.951 30.9772C227.378 30.0963 229.186 29.6523 231.375 29.6523C233.428 29.6523 235.175 30.0963 236.616 30.9772C238.05 31.8581 239.144 33.1067 239.885 34.709C240.626 36.3113 241 38.1911 241 40.3483C241 42.5055 240.626 44.3853 239.872 45.9876C239.117 47.5899 238.023 48.8385 236.589 49.7333C235.154 50.6211 233.407 51.0651 231.348 51.0651ZM231.348 50.7737C233.04 50.7737 234.271 49.9483 235.046 48.2974C235.814 46.6466 236.201 43.9968 236.201 40.3414C236.201 36.6928 235.821 34.0431 235.059 32.4061C234.298 30.7622 233.068 29.9437 231.375 29.9437C229.662 29.9437 228.418 30.7622 227.636 32.4061C226.855 34.05 226.467 36.6928 226.467 40.3414C226.467 43.9899 226.855 46.6466 227.623 48.2974C228.398 49.9483 229.635 50.7737 231.348 50.7737Z" fill="#E3E3E3"/>
<path d="M21.9078 64.8963C21.9758 64.8963 22.037 64.924 22.0914 64.9795L22.5944 65.5344C22.3157 65.8882 21.969 66.1587 21.5612 66.346C21.1533 66.5332 20.6639 66.6304 20.0929 66.6304C19.5831 66.6304 19.1209 66.5402 18.7131 66.3598C18.3052 66.1795 17.9586 65.9367 17.6663 65.6176C17.3808 65.2986 17.1565 64.924 17.0002 64.4801C16.8438 64.0431 16.769 63.5575 16.769 63.0373C16.769 62.5101 16.8574 62.0246 17.0273 61.5876C17.1973 61.1506 17.442 60.7691 17.7479 60.457C18.0605 60.1379 18.4276 59.8951 18.8626 59.7148C19.2977 59.5413 19.7735 59.4512 20.2969 59.4512C20.8067 59.4512 21.2553 59.5344 21.6359 59.7009C22.0166 59.8674 22.3429 60.0893 22.6216 60.3668L22.1933 60.9772C22.1661 61.0188 22.1389 61.0465 22.0982 61.0812C22.0574 61.109 22.003 61.1228 21.935 61.1228C21.8603 61.1228 21.7855 61.0951 21.7107 61.0327C21.6359 60.9702 21.5408 60.9148 21.4184 60.8454C21.3029 60.776 21.1533 60.7136 20.9766 60.6581C20.7999 60.6026 20.5688 60.5679 20.2969 60.5679C19.9706 60.5679 19.6783 60.6234 19.4064 60.7413C19.1345 60.8593 18.9034 61.0188 18.7063 61.2338C18.5092 61.4489 18.3596 61.7055 18.2509 62.0107C18.1421 62.3159 18.0877 62.6627 18.0877 63.0442C18.0877 63.4396 18.1421 63.7934 18.2509 64.0986C18.3596 64.4038 18.5092 64.6674 18.6927 64.8754C18.8762 65.0835 19.1005 65.25 19.352 65.361C19.6035 65.472 19.8754 65.5275 20.1677 65.5275C20.3444 65.5275 20.5008 65.5205 20.6435 65.4997C20.7863 65.4789 20.9154 65.4512 21.031 65.4096C21.1533 65.3679 21.2621 65.3124 21.3708 65.25C21.4796 65.1876 21.5816 65.1043 21.6903 65.0072C21.7243 64.9795 21.7583 64.9517 21.7923 64.9379C21.8263 64.9032 21.8671 64.8963 21.9078 64.8963Z" fill="#E3E3E3"/>
<path d="M33.5859 63.0373C33.5859 63.5506 33.5043 64.0292 33.3344 64.4662C33.1645 64.9032 32.9333 65.2847 32.6275 65.6038C32.3216 65.9228 31.9545 66.1726 31.5263 66.3529C31.0981 66.5333 30.6222 66.6234 30.1057 66.6234C29.5891 66.6234 29.1132 66.5333 28.6782 66.3529C28.2432 66.1726 27.8829 65.9228 27.577 65.6038C27.2712 65.2847 27.0333 64.9032 26.8633 64.4662C26.6934 64.0292 26.6118 63.5506 26.6118 63.0373C26.6118 62.524 26.6934 62.0454 26.8633 61.6084C27.0333 61.1714 27.2712 60.7899 27.577 60.4708C27.8829 60.1518 28.25 59.902 28.6782 59.7217C29.1064 59.5413 29.5823 59.4512 30.1057 59.4512C30.629 59.4512 31.0981 59.5413 31.5263 59.7217C31.9545 59.902 32.3216 60.1518 32.6275 60.4708C32.9333 60.7899 33.1713 61.1714 33.3344 61.6084C33.5043 62.0454 33.5859 62.524 33.5859 63.0373ZM32.274 63.0373C32.274 62.6489 32.2264 62.309 32.1245 62.0038C32.0225 61.6986 31.8798 61.435 31.6962 61.2269C31.5059 61.0119 31.2816 60.8523 31.0165 60.7344C30.7514 60.6234 30.4455 60.561 30.1124 60.561C29.7794 60.561 29.4735 60.6165 29.2016 60.7344C28.9297 60.8454 28.7054 61.0119 28.5151 61.2269C28.3247 61.4419 28.182 61.6986 28.08 62.0038C27.9781 62.309 27.9305 62.6558 27.9305 63.0373C27.9305 63.4188 27.9781 63.7656 28.08 64.0708C28.182 64.376 28.3247 64.6327 28.5151 64.8477C28.7054 65.0627 28.9297 65.2223 29.2016 65.3333C29.4735 65.4442 29.7726 65.5067 30.1124 65.5067C30.4523 65.5067 30.7514 65.4512 31.0165 65.3333C31.2816 65.2223 31.5127 65.0558 31.6962 64.8477C31.8798 64.6327 32.0293 64.376 32.1245 64.0708C32.2264 63.7726 32.274 63.4257 32.274 63.0373Z" fill="#E3E3E3"/>
<path d="M41.7155 60.8031C41.6815 60.8725 41.6407 60.921 41.5931 60.9557C41.5455 60.9834 41.4911 60.9973 41.43 60.9973C41.3688 60.9973 41.294 60.9696 41.2192 60.921C41.1445 60.8725 41.0493 60.817 40.9406 60.7545C40.8318 60.6921 40.7094 60.6366 40.5599 60.5881C40.4172 60.5395 40.2472 60.5118 40.0501 60.5118C39.8734 60.5118 39.717 60.5326 39.5879 60.5742C39.4587 60.6158 39.3432 60.6782 39.2548 60.7545C39.1664 60.8308 39.0985 60.928 39.0509 61.032C39.0033 61.136 38.9829 61.2609 38.9829 61.3858C38.9829 61.5522 39.0305 61.691 39.1189 61.795C39.2072 61.906 39.3296 61.9962 39.4791 62.0794C39.6287 62.1557 39.7986 62.2251 39.9889 62.2875C40.1793 62.3499 40.3764 62.4123 40.5735 62.4817C40.7706 62.5511 40.9677 62.6343 41.1581 62.7245C41.3484 62.8147 41.5183 62.9326 41.6679 63.0713C41.8174 63.21 41.9398 63.3834 42.0281 63.5915C42.1165 63.7927 42.1641 64.0424 42.1641 64.3337C42.1641 64.6528 42.1097 64.9511 42.0077 65.2216C41.899 65.4991 41.7426 65.7418 41.5387 65.943C41.3348 66.1511 41.0833 66.3106 40.791 66.4285C40.4987 66.5465 40.1589 66.6089 39.7782 66.6089C39.5607 66.6089 39.3432 66.5881 39.1325 66.5465C38.9217 66.5048 38.7178 66.4424 38.5207 66.3592C38.3236 66.2759 38.14 66.1788 37.9769 66.0678C37.8138 65.9569 37.6574 65.8251 37.5215 65.6863L37.8953 65.0621C37.9293 65.0135 37.9701 64.9788 38.0245 64.9511C38.0789 64.9233 38.1264 64.9025 38.1876 64.9025C38.2692 64.9025 38.3508 64.9372 38.4459 64.9996C38.5411 65.069 38.643 65.1384 38.7722 65.2216C38.8946 65.3048 39.0441 65.3742 39.214 65.4436C39.384 65.5129 39.5879 65.5407 39.8258 65.5407C40.1928 65.5407 40.4715 65.4505 40.6755 65.2771C40.8726 65.1037 40.9745 64.847 40.9745 64.521C40.9745 64.3337 40.927 64.1881 40.8386 64.0702C40.7502 63.9522 40.6279 63.8551 40.4783 63.7788C40.3288 63.7025 40.1589 63.6332 39.9685 63.5777C39.7782 63.5222 39.5879 63.4597 39.3908 63.3973C39.1936 63.3349 39.0033 63.2517 38.813 63.1615C38.6227 63.0713 38.4527 62.9534 38.3032 62.8077C38.1536 62.6621 38.0313 62.4817 37.9429 62.2597C37.8546 62.0447 37.807 61.7742 37.807 61.4482C37.807 61.1915 37.8546 60.9418 37.9565 60.6991C38.0585 60.4563 38.2012 60.2412 38.3915 60.054C38.5819 59.8667 38.8198 59.7141 39.0985 59.6031C39.3772 59.4921 39.6966 59.4297 40.0569 59.4297C40.4647 59.4297 40.8386 59.4921 41.1785 59.6239C41.5183 59.7557 41.8106 59.936 42.0553 60.1649L41.7155 60.8031Z" fill="#E3E3E3"/>
<path d="M50.1646 63.9608C50.2122 64.0718 50.253 64.1828 50.3006 64.3007C50.3481 64.1828 50.3889 64.0718 50.4365 63.9539C50.4841 63.8429 50.5385 63.7319 50.586 63.6278L52.6252 59.7365C52.6524 59.688 52.6796 59.6463 52.7068 59.6186C52.734 59.5908 52.7612 59.57 52.7952 59.5562C52.8292 59.5423 52.8632 59.5354 52.9039 59.5284C52.9447 59.5284 52.9923 59.5215 53.0535 59.5215H54.0187V66.5411H52.8903V62.0047C52.8903 61.9215 52.8903 61.8313 52.8971 61.7273C52.9039 61.6302 52.9107 61.5261 52.9175 61.4221L50.8443 65.4105C50.7968 65.5007 50.7356 65.57 50.6608 65.6186C50.586 65.6671 50.4977 65.6949 50.3957 65.6949H50.219C50.117 65.6949 50.0287 65.6671 49.9539 65.6186C49.8791 65.57 49.8179 65.5007 49.7704 65.4105L47.6632 61.4151C47.6768 61.5192 47.6836 61.6232 47.6904 61.7273C47.6972 61.8313 47.6972 61.9215 47.6972 62.0117V66.5481H46.562V59.5284H47.5272C47.5816 59.5284 47.636 59.5284 47.6768 59.5354C47.7176 59.5354 47.7583 59.5492 47.7855 59.5631C47.8127 59.577 47.8467 59.5978 47.8807 59.6255C47.9147 59.6533 47.9351 59.6949 47.9623 59.7434L50.0151 63.6417C50.0694 63.7388 50.1238 63.8498 50.1646 63.9608Z" fill="#E3E3E3"/>
<path d="M63.1815 59.5273V60.5678H60.1295V62.5169H62.5357V63.5227H60.1363V65.5065H63.1883V66.547H58.8516V59.5273H63.1815Z" fill="#E3E3E3"/>
<path d="M72.5683 59.5273V60.6025H70.5019V66.547H69.224V60.6025H67.144V59.5273H72.5683Z" fill="#E3E3E3"/>
<path d="M78.2578 66.547H76.9731V59.5273H78.2578V66.547Z" fill="#E3E3E3"/>
<path d="M87.9645 64.8963C88.0325 64.8963 88.0936 64.924 88.148 64.9795L88.651 65.5344C88.3723 65.8882 88.0257 66.1587 87.6178 66.346C87.21 66.5332 86.7206 66.6304 86.1496 66.6304C85.6398 66.6304 85.1776 66.5402 84.7697 66.3598C84.3619 66.1795 84.0152 65.9367 83.7229 65.6176C83.4374 65.2986 83.2131 64.924 83.0568 64.4801C82.9005 64.0431 82.8257 63.5575 82.8257 63.0373C82.8257 62.5101 82.9141 62.0246 83.084 61.5876C83.2539 61.1506 83.4986 60.7691 83.8045 60.457C84.1172 60.1379 84.4842 59.8951 84.9193 59.7148C85.3543 59.5413 85.8301 59.4512 86.3535 59.4512C86.8633 59.4512 87.3119 59.5344 87.6926 59.7009C88.0732 59.8674 88.3995 60.0893 88.6782 60.3668L88.25 60.9772C88.2228 61.0188 88.1956 61.0465 88.1548 61.0812C88.114 61.109 88.0596 61.1228 87.9917 61.1228C87.9169 61.1228 87.8421 61.0951 87.7674 61.0327C87.6926 60.9702 87.5974 60.9148 87.4751 60.8454C87.3595 60.776 87.21 60.7136 87.0332 60.6581C86.8565 60.6026 86.6254 60.5679 86.3535 60.5679C86.0272 60.5679 85.735 60.6234 85.4631 60.7413C85.1912 60.8593 84.9601 61.0188 84.7629 61.2338C84.5658 61.4489 84.4163 61.7055 84.3075 62.0107C84.1987 62.3159 84.1444 62.6627 84.1444 63.0442C84.1444 63.4396 84.1987 63.7934 84.3075 64.0986C84.4163 64.4038 84.5658 64.6674 84.7493 64.8754C84.9329 65.0835 85.1572 65.25 85.4087 65.361C85.6602 65.472 85.9321 65.5275 86.2244 65.5275C86.4011 65.5275 86.5574 65.5205 86.7002 65.4997C86.8429 65.4789 86.9721 65.4512 87.0876 65.4096C87.21 65.3679 87.3187 65.3124 87.4275 65.25C87.5362 65.1876 87.6382 65.1043 87.747 65.0072C87.781 64.9795 87.8149 64.9517 87.8489 64.9379C87.8829 64.9032 87.9237 64.8963 87.9645 64.8963Z" fill="#E3E3E3"/>
<path d="M96.733 60.8031C96.699 60.8725 96.6583 60.921 96.6107 60.9557C96.5631 60.9834 96.5087 60.9973 96.4475 60.9973C96.3864 60.9973 96.3116 60.9696 96.2368 60.921C96.1621 60.8725 96.0669 60.817 95.9581 60.7545C95.8494 60.6921 95.727 60.6366 95.5775 60.5881C95.4347 60.5395 95.2648 60.5118 95.0677 60.5118C94.8909 60.5118 94.7346 60.5326 94.6055 60.5742C94.4763 60.6158 94.3608 60.6782 94.2724 60.7545C94.184 60.8308 94.116 60.928 94.0685 61.032C94.0209 61.136 94.0005 61.2609 94.0005 61.3858C94.0005 61.5522 94.0481 61.691 94.1364 61.795C94.2248 61.906 94.3472 61.9962 94.4967 62.0794C94.6462 62.1557 94.8162 62.2251 95.0065 62.2875C95.1968 62.3499 95.394 62.4123 95.5911 62.4817C95.7882 62.5511 95.9853 62.6343 96.1757 62.7245C96.366 62.8147 96.5359 62.9326 96.6855 63.0713C96.835 63.21 96.9573 63.3834 97.0457 63.5915C97.1341 63.7927 97.1817 64.0424 97.1817 64.3337C97.1817 64.6528 97.1273 64.9511 97.0253 65.2216C96.9166 65.4991 96.7602 65.7418 96.5563 65.943C96.3524 66.1511 96.1009 66.3106 95.8086 66.4285C95.5163 66.5465 95.1764 66.6089 94.7958 66.6089C94.5783 66.6089 94.3607 66.5881 94.15 66.5465C93.9393 66.5048 93.7354 66.4424 93.5383 66.3592C93.3412 66.2759 93.1576 66.1788 92.9945 66.0678C92.8313 65.9569 92.675 65.8251 92.5391 65.6863L92.9129 65.0621C92.9469 65.0135 92.9877 64.9788 93.0421 64.9511C93.0964 64.9233 93.144 64.9025 93.2052 64.9025C93.2868 64.9025 93.3683 64.9372 93.4635 64.9996C93.5587 65.069 93.6606 65.1384 93.7898 65.2216C93.9121 65.3048 94.0617 65.3742 94.2316 65.4436C94.4015 65.5129 94.6055 65.5407 94.8434 65.5407C95.2104 65.5407 95.4891 65.4505 95.693 65.2771C95.8902 65.1037 95.9921 64.847 95.9921 64.521C95.9921 64.3337 95.9445 64.1881 95.8562 64.0702C95.7678 63.9522 95.6455 63.8551 95.4959 63.7788C95.3464 63.7025 95.1764 63.6332 94.9861 63.5777C94.7958 63.5222 94.6055 63.4597 94.4083 63.3973C94.2112 63.3349 94.0209 63.2517 93.8306 63.1615C93.6402 63.0713 93.4703 62.9534 93.3208 62.8077C93.1712 62.6621 93.0489 62.4817 92.9605 62.2597C92.8721 62.0447 92.8246 61.7742 92.8246 61.4482C92.8246 61.1915 92.8721 60.9418 92.9741 60.6991C93.0761 60.4563 93.2188 60.2412 93.4091 60.054C93.5994 59.8667 93.8374 59.7141 94.1161 59.6031C94.3947 59.4921 94.7142 59.4297 95.0745 59.4297C95.4823 59.4297 95.8562 59.4921 96.196 59.6239C96.5359 59.7557 96.8282 59.936 97.0729 60.1649L96.733 60.8031Z" fill="#E3E3E3"/>
<path d="M139.312 63.0372C139.312 63.5505 139.23 64.0221 139.06 64.4522C138.89 64.8822 138.659 65.2568 138.353 65.562C138.047 65.8742 137.68 66.1169 137.252 66.2834C136.824 66.4499 136.348 66.5401 135.831 66.5401H133.208V59.5273H135.831C136.348 59.5273 136.824 59.6175 137.252 59.7909C137.68 59.9643 138.047 60.2071 138.353 60.5123C138.659 60.8245 138.897 61.1921 139.06 61.6221C139.23 62.0522 139.312 62.5239 139.312 63.0372ZM138.006 63.0372C138.006 62.6487 137.959 62.3088 137.857 62.0036C137.755 61.6984 137.612 61.4418 137.422 61.2268C137.232 61.0117 137.007 60.8522 136.742 60.7412C136.477 60.6302 136.171 60.5678 135.838 60.5678H134.499V65.5135H135.838C136.171 65.5135 136.477 65.458 136.742 65.3401C137.007 65.2291 137.238 65.0626 137.422 64.8545C137.605 64.6395 137.755 64.3828 137.857 64.0776C137.952 63.7724 138.006 63.4256 138.006 63.0372Z" fill="#E3E3E3"/>
<path d="M145.191 66.547H143.907V59.5273H145.191V66.547Z" fill="#E3E3E3"/>
<path d="M153.858 60.8031C153.824 60.8725 153.783 60.921 153.736 60.9557C153.688 60.9904 153.634 60.9973 153.572 60.9973C153.511 60.9973 153.437 60.9696 153.355 60.921C153.273 60.8725 153.185 60.817 153.076 60.7545C152.967 60.6921 152.845 60.6366 152.696 60.5881C152.553 60.5395 152.383 60.5118 152.186 60.5118C152.009 60.5118 151.853 60.5326 151.724 60.5742C151.594 60.6158 151.479 60.6782 151.391 60.7545C151.302 60.8308 151.234 60.928 151.187 61.032C151.139 61.136 151.119 61.2609 151.119 61.3858C151.119 61.5522 151.166 61.691 151.255 61.795C151.343 61.906 151.465 61.9962 151.615 62.0794C151.764 62.1557 151.934 62.2251 152.125 62.2875C152.315 62.3499 152.512 62.4123 152.709 62.4817C152.906 62.5511 153.103 62.6343 153.294 62.7245C153.484 62.8147 153.654 62.9326 153.804 63.0713C153.953 63.21 154.075 63.3834 154.164 63.5915C154.252 63.7996 154.3 64.0424 154.3 64.3337C154.3 64.6528 154.245 64.9511 154.143 65.2216C154.035 65.4991 153.885 65.7418 153.674 65.943C153.47 66.1511 153.219 66.3106 152.927 66.4285C152.634 66.5465 152.295 66.6089 151.914 66.6089C151.696 66.6089 151.479 66.5881 151.268 66.5465C151.057 66.5048 150.854 66.4424 150.656 66.3592C150.459 66.2759 150.276 66.1788 150.106 66.0678C149.936 65.9569 149.786 65.8251 149.65 65.6863L150.024 65.0621C150.058 65.0135 150.099 64.9788 150.153 64.9511C150.208 64.9233 150.255 64.9025 150.317 64.9025C150.398 64.9025 150.48 64.9372 150.575 64.9996C150.67 65.069 150.772 65.1384 150.901 65.2216C151.023 65.3048 151.173 65.3742 151.343 65.4436C151.513 65.5129 151.717 65.5407 151.955 65.5407C152.322 65.5407 152.6 65.4505 152.804 65.2771C153.001 65.1037 153.103 64.847 153.103 64.521C153.103 64.3337 153.056 64.1881 152.967 64.0702C152.879 63.9522 152.757 63.8551 152.607 63.7788C152.458 63.7025 152.288 63.6332 152.097 63.5777C151.907 63.5222 151.717 63.4597 151.52 63.3973C151.323 63.3349 151.132 63.2517 150.942 63.1615C150.752 63.0713 150.582 62.9534 150.432 62.8077C150.283 62.6621 150.16 62.4817 150.072 62.2597C149.983 62.0447 149.936 61.7742 149.936 61.4482C149.936 61.1915 149.983 60.9418 150.085 60.6991C150.187 60.4563 150.33 60.2412 150.52 60.054C150.711 59.8667 150.949 59.7141 151.227 59.6031C151.506 59.4921 151.826 59.4297 152.186 59.4297C152.594 59.4297 152.967 59.4921 153.307 59.6239C153.647 59.7557 153.94 59.936 154.184 60.1649L153.858 60.8031Z" fill="#E3E3E3"/>
<path d="M163.558 59.5273V60.6025H161.491V66.547H160.213V60.6025H158.133V59.5273H163.558Z" fill="#E3E3E3"/>
<path d="M169.125 63.8071V66.5539H167.847V59.5273H169.947C170.416 59.5273 170.817 59.5759 171.15 59.673C171.483 59.7701 171.762 59.9088 171.973 60.0892C172.183 60.2695 172.347 60.4776 172.442 60.7273C172.544 60.9771 172.591 61.2476 172.591 61.5458C172.591 61.7817 172.557 62.0036 172.489 62.2187C172.421 62.4268 172.319 62.621 172.197 62.7944C172.068 62.9678 171.912 63.1135 171.721 63.2453C171.531 63.3771 171.32 63.4811 171.075 63.5574C171.239 63.6476 171.375 63.7863 171.497 63.9597L173.217 66.5539H172.068C171.959 66.5539 171.864 66.5331 171.782 66.4846C171.701 66.436 171.64 66.3736 171.585 66.2903L170.137 64.043C170.083 63.9597 170.022 63.8973 169.961 63.8626C169.893 63.8279 169.798 63.8071 169.675 63.8071H169.125ZM169.125 62.8707H169.927C170.165 62.8707 170.375 62.843 170.559 62.7805C170.742 62.7181 170.885 62.6349 171.001 62.5239C171.116 62.4129 171.205 62.288 171.259 62.1354C171.313 61.9828 171.347 61.8233 171.347 61.643C171.347 61.2892 171.232 61.0117 171.001 60.8245C170.77 60.6302 170.423 60.5401 169.947 60.5401H169.131V62.8707H169.125Z" fill="#E3E3E3"/>
<path d="M178.906 66.547H177.622V59.5273H178.906V66.547Z" fill="#E3E3E3"/>
<path d="M183.889 66.547V59.5273H186.261C186.71 59.5273 187.097 59.569 187.416 59.6591C187.736 59.7493 187.994 59.8742 188.205 60.0337C188.409 60.1932 188.558 60.3944 188.654 60.6233C188.749 60.8522 188.796 61.1088 188.796 61.4002C188.796 61.5666 188.769 61.7192 188.722 61.8718C188.674 62.0244 188.599 62.1632 188.497 62.295C188.395 62.4268 188.273 62.5447 188.117 62.6487C187.96 62.7528 187.777 62.8429 187.566 62.9192C188.511 63.1343 188.987 63.6545 188.987 64.4799C188.987 64.7782 188.932 65.0557 188.817 65.3054C188.708 65.5551 188.545 65.777 188.334 65.9574C188.123 66.1377 187.858 66.2834 187.546 66.3875C187.233 66.4915 186.879 66.5401 186.478 66.5401H183.889V66.547ZM185.167 62.5655H186.186C186.621 62.5655 186.954 62.4823 187.179 62.3227C187.403 62.1632 187.518 61.9065 187.518 61.5528C187.518 61.1851 187.416 60.9285 187.213 60.769C187.009 60.6164 186.696 60.5331 186.261 60.5331H185.167V62.5655ZM185.167 63.4672V65.5273H186.465C186.703 65.5273 186.9 65.4996 187.063 65.4372C187.226 65.3817 187.349 65.2984 187.45 65.2013C187.546 65.1042 187.62 64.9932 187.661 64.8614C187.702 64.7297 187.722 64.5979 187.722 64.4522C187.722 64.2996 187.695 64.1609 187.654 64.0429C187.607 63.925 187.532 63.821 187.43 63.7308C187.328 63.6476 187.199 63.5782 187.043 63.5366C186.886 63.495 186.689 63.4672 186.465 63.4672H185.167Z" fill="#E3E3E3"/>
<path d="M196.287 65.4927C196.532 65.4927 196.756 65.451 196.953 65.3678C197.15 65.2846 197.314 65.1666 197.449 65.014C197.585 64.8614 197.687 64.6742 197.762 64.4591C197.83 64.2441 197.871 64.0013 197.871 63.7308V59.5273H199.149V63.7308C199.149 64.147 199.081 64.5354 198.952 64.8892C198.823 65.2429 198.632 65.5482 198.381 65.8048C198.136 66.0614 197.837 66.2626 197.483 66.4083C197.13 66.5539 196.736 66.6233 196.294 66.6233C195.852 66.6233 195.458 66.5539 195.104 66.4083C194.751 66.2626 194.452 66.0614 194.207 65.8048C193.962 65.5482 193.772 65.2429 193.643 64.8892C193.514 64.5354 193.446 64.147 193.446 63.7308V59.5273H194.724V63.7239C194.724 63.9944 194.758 64.2372 194.832 64.4522C194.9 64.6672 195.002 64.8545 195.138 65.0071C195.274 65.1597 195.437 65.2776 195.628 65.3609C195.818 65.451 196.036 65.4927 196.287 65.4927Z" fill="#E3E3E3"/>
<path d="M208.719 59.5273V60.6025H206.653V66.547H205.375V60.6025H203.295V59.5273H208.719Z" fill="#E3E3E3"/>
<path d="M219.568 63.0373C219.568 63.5506 219.486 64.0292 219.316 64.4662C219.146 64.9032 218.908 65.2847 218.609 65.6038C218.304 65.9228 217.936 66.1726 217.508 66.3529C217.08 66.5333 216.604 66.6234 216.088 66.6234C215.571 66.6234 215.095 66.5333 214.66 66.3529C214.232 66.1726 213.865 65.9228 213.559 65.6038C213.253 65.2847 213.015 64.9032 212.845 64.4662C212.675 64.0292 212.594 63.5506 212.594 63.0373C212.594 62.524 212.675 62.0454 212.845 61.6084C213.015 61.1714 213.253 60.7899 213.559 60.4708C213.865 60.1518 214.232 59.902 214.66 59.7217C215.088 59.5413 215.564 59.4512 216.088 59.4512C216.611 59.4512 217.08 59.5413 217.508 59.7217C217.936 59.902 218.304 60.1518 218.609 60.4708C218.915 60.7899 219.146 61.1714 219.316 61.6084C219.486 62.0454 219.568 62.524 219.568 63.0373ZM218.256 63.0373C218.256 62.6489 218.208 62.309 218.106 62.0038C218.004 61.6986 217.862 61.435 217.678 61.2269C217.488 61.0119 217.264 60.8523 216.998 60.7344C216.733 60.6234 216.427 60.561 216.094 60.561C215.755 60.561 215.455 60.6165 215.184 60.7344C214.912 60.8454 214.687 61.0119 214.497 61.2269C214.307 61.4419 214.164 61.6986 214.062 62.0038C213.96 62.309 213.912 62.6558 213.912 63.0373C213.912 63.4188 213.967 63.7656 214.062 64.0708C214.164 64.376 214.307 64.6327 214.497 64.8477C214.687 65.0627 214.918 65.2223 215.184 65.3333C215.455 65.4442 215.755 65.5067 216.094 65.5067C216.427 65.5067 216.733 65.4512 216.998 65.3333C217.264 65.2223 217.495 65.0558 217.678 64.8477C217.862 64.6396 218.011 64.376 218.106 64.0708C218.202 63.7726 218.256 63.4257 218.256 63.0373Z" fill="#E3E3E3"/>
<path d="M225.332 63.8071V66.5539H224.054V59.5273H226.155C226.624 59.5273 227.025 59.5759 227.358 59.673C227.691 59.7701 227.969 59.9088 228.18 60.0892C228.391 60.2695 228.554 60.4776 228.649 60.7273C228.751 60.9771 228.799 61.2476 228.799 61.5458C228.799 61.7817 228.765 62.0036 228.697 62.2187C228.629 62.4268 228.527 62.621 228.405 62.7944C228.275 62.9678 228.119 63.1135 227.929 63.2453C227.738 63.3771 227.528 63.4811 227.283 63.5574C227.446 63.6476 227.582 63.7863 227.704 63.9597L229.424 66.5539H228.275C228.167 66.5539 228.071 66.5331 227.99 66.4846C227.908 66.436 227.847 66.3736 227.793 66.2903L226.345 64.043C226.291 63.9597 226.229 63.8973 226.168 63.8626C226.1 63.8279 226.005 63.8071 225.883 63.8071H225.332ZM225.332 62.8707H226.134C226.372 62.8707 226.583 62.843 226.766 62.7805C226.95 62.7181 227.093 62.6349 227.208 62.5239C227.324 62.4129 227.412 62.288 227.466 62.1354C227.521 61.9828 227.555 61.8233 227.555 61.643C227.555 61.2892 227.439 61.0117 227.208 60.8245C226.977 60.6302 226.63 60.5401 226.155 60.5401H225.339V62.8707H225.332Z" fill="#E3E3E3"/>
<path d="M125.622 58.2173C125.642 58.4947 125.67 58.7514 125.676 59.008C125.683 62.7606 125.69 66.5202 125.663 70.2728C125.663 70.6889 125.54 71.1537 125.323 71.5005C123.97 73.6577 122.597 75.8011 121.183 77.9167C121 78.1941 120.558 78.4716 120.238 78.4716C114.964 78.5063 109.689 78.4924 104.414 78.4924C104.272 78.4924 104.136 78.4716 103.938 78.4508C103.918 78.1664 103.891 77.9098 103.891 77.6531C103.891 73.3664 103.877 69.0866 103.911 64.7999C103.911 64.3837 104.102 63.8843 104.367 63.5583C105.713 61.9005 107.099 60.2774 108.506 58.6681C108.731 58.4184 109.111 58.1548 109.424 58.1548C114.699 58.1271 119.973 58.134 125.248 58.141C125.35 58.1479 125.459 58.1895 125.622 58.2173ZM105.325 65.2439C105.325 69.1837 105.325 73.0751 105.325 77.0219C110.09 77.0219 114.821 77.0219 119.566 77.0219C119.566 73.0612 119.566 69.156 119.566 65.2439C114.787 65.2439 110.076 65.2439 105.325 65.2439ZM121.041 75.3433C121.109 75.3641 121.177 75.3849 121.245 75.4057C122.23 73.8311 123.216 72.2635 124.181 70.682C124.276 70.5225 124.263 70.2866 124.263 70.0855C124.269 67.1791 124.269 64.2728 124.263 61.3733C124.263 61.2069 124.222 61.0473 124.181 60.7005C123.229 61.8728 122.359 62.8785 121.571 63.9537C121.285 64.3421 121.075 64.8832 121.068 65.3618C121.02 68.4416 121.047 71.5213 121.047 74.608C121.041 74.8508 121.041 75.0936 121.041 75.3433ZM113.55 63.7733C115.684 63.7733 117.622 63.7733 119.559 63.7664C119.668 63.7664 119.81 63.7248 119.871 63.6485C120.966 62.3444 122.047 61.0335 123.27 59.5491C121.129 59.5491 119.246 59.5421 117.363 59.556C117.186 59.556 116.949 59.6462 116.833 59.7849C115.773 61.0543 114.733 62.3375 113.55 63.7733ZM115.195 59.556C113.271 59.556 111.613 59.5491 109.954 59.5629C109.791 59.5629 109.567 59.5976 109.478 59.7086C108.37 61.0057 107.283 62.3236 106.066 63.7803C107.976 63.7803 109.662 63.7872 111.348 63.7733C111.531 63.7733 111.776 63.697 111.885 63.5652C112.945 62.2959 113.992 61.0126 115.195 59.556Z" fill="#E3E3E3"/>
<path d="M109.845 69.1352C109.845 68.8023 109.845 68.5387 109.845 68.2266C111.572 68.2266 113.278 68.2266 115.018 68.2266C115.018 68.5387 115.018 68.8162 115.018 69.1352C113.298 69.1352 111.619 69.1352 109.845 69.1352Z" fill="#E3E3E3"/>
</svg>
