<svg width="241" height="100" viewBox="0 0 241 100" fill="none" xmlns="http://www.w3.org/2000/svg">
<g clip-path="url(#clip0_406_2722)">
<path d="M120.134 90.3959C120.134 92.2395 120.134 95.1782 116.846 95.1782C114.132 95.1782 113.569 93.186 113.569 90.3959V81.1559C113.569 80.1048 113.569 77.0614 116.928 77.0614C120.134 77.0614 120.134 79.3068 120.134 81.1559V90.3959ZM116.742 72.1745C114.138 72.1745 111.528 72.8624 109.794 74.7115C107.873 76.7422 107.376 79.3508 107.376 82.0694V89.2072C107.376 90.3684 107.491 92.6852 108.092 94.5674C109.487 99.058 113.946 99.9991 116.66 99.9991C118.438 99.9991 121.758 99.7459 124.056 97.352C125.796 95.5414 126.436 93.153 126.436 89.4218V82.972C126.436 78.6959 125.566 76.346 124.023 74.7501C122.174 72.8239 119.565 72.1745 116.742 72.1745ZM135.419 86.1584C134.888 86.1584 134.401 86.1584 133.909 86.1253V77.9585C133.909 76.4231 134.708 75.8012 135.933 75.8012H138.505C141.01 75.8012 144.232 77.5622 144.232 81.1394C144.232 85.4429 140.058 86.1584 135.419 86.1584ZM144.55 74.5299C143.018 73.4733 140.808 72.6808 138.614 72.6808H134.998C131.972 72.6808 130.058 74.6785 130.058 77.986V99.2727H133.909V89.5539H137.268C139.834 89.5539 142.739 89.1686 145.119 87.3526C146.246 86.483 147.947 84.744 147.947 81.409C147.947 78.7289 146.776 76.0158 144.55 74.5299ZM237.006 79.2187C235.261 79.2187 233.948 77.8264 233.948 76.0653C233.948 74.3318 235.261 72.9175 236.963 72.9175C238.708 72.9175 239.999 74.3373 239.999 76.0929C239.999 77.8264 238.708 79.2462 237.006 79.2187ZM237.006 72.125C234.736 72.125 232.942 73.8585 232.942 76.0708C232.942 78.2832 234.736 80.0387 236.985 80.0387C239.233 80.0387 241 78.2832 241 76.0708C241 73.8585 239.233 72.125 237.006 72.125ZM173.753 90.649L177.867 77.1385C177.905 77.0669 177.944 76.9569 178.058 76.9569C178.173 76.9569 178.212 77.0284 178.244 77.1L182.627 90.649H173.753ZM175.941 72.6808L168.091 96.0147V95.9047H154.009V72.6808H150.201V99.2727H171.034L172.774 93.7309H183.721L185.608 99.2727H189.646L180.285 72.6808H175.941ZM207.557 72.6808H197.212C192.873 72.6808 189.323 74.9647 189.323 78.9821C189.323 80.8312 189.777 82.0309 190.154 82.6803C191.019 84.1662 193.027 85.509 194.717 86.2299L199.63 88.3652C202.535 89.6364 203.027 90.8527 203.027 92.0854C203.027 94.9856 200.494 95.712 198.153 95.712H190.078C190.078 95.712 190.565 99.2727 194.192 99.2727H198.202C199.674 99.2727 201.813 99.3167 204.078 97.4291C205.856 95.9762 206.611 94.2977 206.611 91.7992C206.611 89.8456 206.047 88.9485 205.708 88.3321C204.537 86.3785 202.458 85.509 201.512 85.0742L195.997 82.6803C195.095 82.2841 192.977 81.2659 192.977 78.8775C192.977 76.5276 195.505 76.0764 197.206 76.0929H208.804V76.0543H215.632V99.2727H219.593V76.0543H227.635V72.6808H208.804H207.557ZM0.798828 79.67C0.798828 84.9256 4.4205 86.7032 8.61114 88.2551C12.7635 89.8125 13.8959 90.2528 13.8959 92.2395C13.8959 94.6664 11.2918 95.1177 8.25554 95.1177H1.38968V99.8505H10.4603C11.8553 99.8505 14.164 99.6304 15.7834 98.6893C19.7059 96.4055 19.7059 92.8503 19.7059 91.6616C19.7059 89.1576 18.5024 87.4241 18.1632 86.9894C17.069 85.5365 15.105 84.4523 13.4419 83.8745L9.93508 82.6363C8.23366 82.0584 6.42282 81.299 6.42282 79.4113C6.42282 78.9326 6.77295 77.5237 9.94602 77.5237H19.8591H26.9219V99.2617H33.2626V77.5237H40.1722V72.6698H9.82019C4.11961 72.6808 0.798828 75.2894 0.798828 79.67ZM47.9462 88.046H60.261V83.1921H47.8697V79.0096C47.8697 78.0465 48.455 77.5347 49.3194 77.5347H60.4416V72.6808H48.3456C44.7732 72.6808 41.8354 74.3208 41.8354 79.0536V99.2782H60.4525V94.3142H47.9462V88.046ZM64.3094 99.2727H70.1085V72.6808H64.3094V99.2727ZM236.815 75.9002H236.383V74.7666C236.476 74.7446 236.645 74.717 236.886 74.717C237.46 74.717 237.723 74.9592 237.723 75.3169C237.729 75.7296 237.318 75.9002 236.815 75.9002ZM237.893 76.1919V76.1424C238.347 75.9993 238.708 75.6856 238.708 75.2013C238.708 74.8161 238.538 74.5299 238.303 74.3593C238.04 74.1667 237.707 74.0456 236.963 74.0456C236.317 74.0456 235.814 74.1172 235.458 74.1667V78.1126H236.366V76.5496H236.799C237.302 76.5496 237.537 76.7423 237.608 77.1495C237.729 77.6283 237.8 77.9695 237.92 78.1126H238.877C238.806 77.9695 238.708 77.7549 238.587 77.1495C238.467 76.6212 238.276 76.3075 237.893 76.1919ZM93.5235 72.6808H87.7792V99.2727H106.167V94.3087H93.529V72.6808H93.5235ZM85.3994 72.6808H78.7141L70.3328 85.7071L79.2174 99.2727H86.0559L76.8485 85.542L85.3994 72.6808Z" fill="#FBBA00"/>
<path d="M104.241 0.792969H56.8801V12.0692L98.6278 12.0857V23.2904L59.4185 23.3124V57.2566H70.6446V34.5831H104.241L109.772 28.9367V6.52188L104.241 0.792969ZM12.0796 23.3784V12.0857H47.7876V0.792969H6.38997L0.853516 6.52188V30.7198L6.3845 34.7537H40.0628V45.9638H12.0796V40.4H0.853516V51.6927L6.3845 57.2566H45.6813L51.2123 51.6927V29.0248L45.6813 23.3784H12.0796Z" fill="#FFD744"/>
<path d="M104.049 0H56.3876V11.3478L98.4034 11.3643V22.6405L58.9425 22.6625V56.8268H70.2397V34.0102H104.055L109.624 28.3254V5.76193L104.049 0ZM11.2972 22.7285V11.3643H47.235V0H5.56928L0 5.76193V30.1139L5.56928 34.1698H39.4664V45.4515H11.2972V39.8602H0V51.2245L5.56928 56.8268H45.1123L50.6816 51.2245V28.4134L45.1123 22.7285H11.2972Z" fill="#FBBA00"/>
<path d="M50.6815 29.9152V28.4128L50.4572 28.1816L39.4663 39.5789V41.5436L50.6815 29.9152Z" fill="#FFD744"/>
<path d="M49.4999 27.2085L48.5479 26.2344L39.4609 35.656V37.6207L49.4999 27.2085Z" fill="#FFD744"/>
<path d="M47.5906 25.2592L46.6386 24.2852L37.103 34.1745H38.9959L47.5906 25.2592Z" fill="#FFD744"/>
<path d="M61.459 22.6621H59.5662L58.937 23.317V25.2817L61.459 22.6621Z" fill="#FFD744"/>
<path d="M65.2503 22.6621H63.3519L58.937 27.2463V29.2055L65.2503 22.6621Z" fill="#FFD744"/>
<path d="M27.3104 22.7285H25.4175L14.3774 34.1753H16.2703L27.3104 22.7285Z" fill="#FFD744"/>
<path d="M31.0961 22.7285H29.2032L18.1631 34.1753H20.0615L31.0961 22.7285Z" fill="#FFD744"/>
<path d="M38.6732 22.7285H36.7803L25.7402 34.1753H27.6331L38.6732 22.7285Z" fill="#FFD744"/>
<path d="M42.4589 22.7285H40.566L29.5259 34.1753H31.4188L42.4589 22.7285Z" fill="#FFD744"/>
<path d="M45.6865 23.3119L45.1121 22.7285H44.3516L33.3115 34.1753H35.2099L45.6865 23.3119Z" fill="#FFD744"/>
<path d="M34.8821 22.7285H32.9892L21.9546 34.1753H23.8475L34.8821 22.7285Z" fill="#FFD744"/>
<path d="M66.6836 11.3533H68.5765L79.5291 0H77.6362L66.6836 11.3533Z" fill="#FFD744"/>
<path d="M70.4692 11.3533H72.3621L83.3147 0H81.4218L70.4692 11.3533Z" fill="#FFD744"/>
<path d="M62.8979 11.3533H64.7908L75.7379 0H73.845L62.8979 11.3533Z" fill="#FFD744"/>
<path d="M69.0361 22.6562L67.1432 22.6618L58.937 31.1698V33.1345L69.0361 22.6562Z" fill="#FFD744"/>
<path d="M74.2552 11.3588H76.1482L87.1007 0H85.2078L74.2552 11.3588Z" fill="#FFD744"/>
<path d="M76.6186 22.6562H74.7203L58.937 39.0285V40.9877L76.6186 22.6562Z" fill="#FFD744"/>
<path d="M72.8274 22.6562H70.9345L58.937 35.0992V37.0638L72.8274 22.6562Z" fill="#FFD744"/>
<path d="M81.8271 11.3588H83.72L94.6781 0H92.7852L81.8271 11.3588Z" fill="#FFD744"/>
<path d="M78.0411 11.3588H79.934L90.8866 0H88.9937L78.0411 11.3588Z" fill="#FFD744"/>
<path d="M109.619 15.9256V13.9609L90.2847 34.0094H92.1776L109.619 15.9256Z" fill="#FFD744"/>
<path d="M11.2972 11.843V11.3643H11.7568L22.7203 0H20.8219L0 21.5948V23.5595L11.2972 11.843Z" fill="#FFD744"/>
<path d="M6.80566 34.1753H8.69856L19.7332 22.7285H17.8403L6.80566 34.1753Z" fill="#FFD744"/>
<path d="M59.1123 11.3478L61.0052 11.3533L71.9523 0H70.0594L59.1123 11.3478Z" fill="#FFD744"/>
<path d="M98.398 21.6671V22.6467H97.457L86.499 34.011H88.3919L109.619 11.9979V10.0332L98.398 21.6671Z" fill="#FFD744"/>
<path d="M15.1432 0H13.2503L0 13.7417V15.7063L15.1432 0Z" fill="#FFD744"/>
<path d="M11.2972 17.7324L0 29.4489V30.1203L0.733088 30.6541L11.2972 19.6971V17.7324Z" fill="#FFD744"/>
<path d="M14.8586 45.4629L4.72119 55.9741L5.56917 56.8272H5.79347L16.7515 45.4629H14.8586Z" fill="#FFD744"/>
<path d="M71.3501 34.0111H73.243L84.1955 22.6523H82.3027L71.3501 34.0111Z" fill="#FFD744"/>
<path d="M7.5716 0H5.67323L0 5.883V7.84767L7.5716 0Z" fill="#FFD744"/>
<path d="M11.3574 0H9.4645L0 9.81234V11.777L11.3574 0Z" fill="#FFD744"/>
<path d="M18.929 0H17.0361L0 17.6655V19.6302L18.929 0Z" fill="#FFD744"/>
<path d="M85.6128 11.3588H87.5057L98.4637 0H96.5708L85.6128 11.3588Z" fill="#FFD744"/>
<path d="M93.1841 11.3636H95.077L105.045 1.03391L104.093 0.0488281L93.1841 11.3636Z" fill="#FFD744"/>
<path d="M89.3984 11.3643H91.2913L102.249 0H100.356L89.3984 11.3643Z" fill="#FFD744"/>
<path d="M23.5243 22.7285H21.6259L10.5913 34.1753H12.4842L23.5243 22.7285Z" fill="#FFD744"/>
<path d="M98.3979 13.8125V15.7772L108.836 4.95224L107.89 3.97266L98.3979 13.8125Z" fill="#FFD744"/>
<path d="M95.5639 22.6465H93.6656L82.7075 34.0107H84.6059L95.5639 22.6465Z" fill="#FFD744"/>
<path d="M98.3979 17.7433V19.708L109.619 8.06854V6.10938L98.3979 17.7433Z" fill="#FFD744"/>
<path d="M96.9702 11.3637H98.3981V11.848L106.938 2.99325L105.992 2.01367L96.9702 11.3637Z" fill="#FFD744"/>
<path d="M91.7728 22.6465L89.8799 22.652L78.9219 34.0107H80.8148L91.7728 22.6465Z" fill="#FFD744"/>
<path d="M87.9817 22.6523H86.0888L75.1362 34.0111H77.0291L87.9817 22.6523Z" fill="#FFD744"/>
<path d="M80.4045 22.6523L78.5116 22.6578L58.937 42.9539V44.9186L80.4045 22.6523Z" fill="#FFD744"/>
<path d="M50.6815 37.7694V35.8047L30.4067 56.8272H32.2996L50.6815 37.7694Z" fill="#FFD744"/>
<path d="M50.6815 49.5506V47.5859L41.7695 56.8259H43.6624L50.6815 49.5506Z" fill="#FFD744"/>
<path d="M50.6816 45.6229V43.6582L37.9839 56.8275H39.8768L50.6816 45.6229Z" fill="#FFD744"/>
<path d="M50.6817 33.8397V31.875L39.4665 43.5089V45.4626H37.5791L26.6211 56.8269H28.514L50.6817 33.8397Z" fill="#FFD744"/>
<path d="M50.6818 41.699V39.7344L34.1982 56.8276H36.0911L50.6818 41.699Z" fill="#FFD744"/>
<path d="M24.3286 45.4629H22.4302L11.4722 56.8272H13.3651L24.3286 45.4629Z" fill="#FFD744"/>
<path d="M28.1142 45.4629H26.2213L15.2578 56.8272H17.1507L28.1142 45.4629Z" fill="#FFD744"/>
<path d="M31.9003 45.4629H30.0074L19.0439 56.8272H20.9423L31.9003 45.4629Z" fill="#FFD744"/>
<path d="M35.6859 45.4629H33.793L22.835 56.8272H24.7279L35.6859 45.4629Z" fill="#FFD744"/>
<path d="M109.618 19.8494V17.8848L94.0703 34.0094H95.9632L109.618 19.8494Z" fill="#FFD744"/>
<path d="M20.5375 45.4629H18.6446L7.68652 56.8272H9.57942L20.5375 45.4629Z" fill="#FFD744"/>
<path d="M109.619 23.7791V21.8145L97.8564 34.0097H99.7548L109.619 23.7791Z" fill="#FFD744"/>
<path d="M70.2342 37.1307V35.166L58.937 46.8825V48.8471L70.2342 37.1307Z" fill="#FFD744"/>
<path d="M109.618 27.7088V25.7441L101.647 34.0101H103.54L109.618 27.7088Z" fill="#FFD744"/>
<path d="M56.3823 10.2526V11.3478H57.2194L68.1664 0H66.2735L56.3823 10.2526Z" fill="#FFD744"/>
<path d="M70.2342 44.9842V43.0195L58.937 54.736V56.7007L70.2342 44.9842Z" fill="#FFD744"/>
<path d="M70.2342 41.0549V39.0957L58.937 50.8122V52.7713L70.2342 41.0549Z" fill="#FFD744"/>
<path d="M70.2343 48.9139V46.9492L60.7041 56.8276H62.6025L70.2343 48.9139Z" fill="#FFD744"/>
<path d="M70.234 52.8377V50.873L64.4951 56.8276H66.388L70.234 52.8377Z" fill="#FFD744"/>
<path d="M70.2343 56.7655V54.8008L68.2812 56.826H70.1742L70.2343 56.7655Z" fill="#FFD744"/>
<path d="M36.3755 11.3632H38.2684L47.2351 2.06818V0.103516L36.3755 11.3632Z" fill="#FFD744"/>
<path d="M21.2271 11.3643H23.1199L34.078 0H32.1851L21.2271 11.3643Z" fill="#FFD744"/>
<path d="M32.5898 11.3643H34.4827L45.4408 0H43.5479L32.5898 11.3643Z" fill="#FFD744"/>
<path d="M28.7983 11.3643H30.6967L41.6547 0H39.7618L28.7983 11.3643Z" fill="#FFD744"/>
<path d="M12.9656 45.4632H11.297V45.2266L2.79541 54.0428L3.75827 55.0059L12.9656 45.4632Z" fill="#FFD744"/>
<path d="M40.1611 11.3636H42.054L47.2349 5.99237V4.0332L40.1611 11.3636Z" fill="#FFD744"/>
<path d="M56.3823 2.39943V4.3641L60.5894 0H58.6965L56.3823 2.39943Z" fill="#FFD744"/>
<path d="M56.3823 6.32877V8.28793L64.3752 0H62.4823L56.3823 6.32877Z" fill="#FFD744"/>
<path d="M45.8452 11.3636L47.2347 9.9217V7.95703L43.9468 11.3636H45.8452Z" fill="#FFD744"/>
<path d="M25.0122 11.3643H26.9051L37.8686 0H35.9757L25.0122 11.3643Z" fill="#FFD744"/>
<path d="M10.7939 39.8594H8.89553L0 49.0829V51.0475L10.7939 39.8594Z" fill="#FFD744"/>
<path d="M3.21684 39.8594H1.32394L0 41.2297V43.1944L3.21684 39.8594Z" fill="#FFD744"/>
<path d="M7.00263 39.8594H5.10973L0 45.159V47.1237L7.00263 39.8594Z" fill="#FFD744"/>
<path d="M11.2974 43.2615V41.2969L0.875488 52.1053L1.83835 53.0739L11.2974 43.2615Z" fill="#FFD744"/>
<path d="M12.1617 22.7278H11.2973V21.6602L1.84375 31.4615L2.95979 32.276L12.1617 22.7278Z" fill="#FFD744"/>
<path d="M15.9474 22.7285H14.0545L4.07031 33.0857L5.18089 33.8947L15.9474 22.7285Z" fill="#FFD744"/>
<path d="M13.6494 11.3643H15.5423L26.5058 0H24.6129L13.6494 11.3643Z" fill="#FFD744"/>
<path d="M11.2972 15.7733V13.8086L0 25.5251V27.4842L11.2972 15.7733Z" fill="#FFD744"/>
<path d="M17.4409 11.3643H19.3338L30.2918 0H28.3989L17.4409 11.3643Z" fill="#FFD744"/>
</g>
<defs>
<clipPath id="clip0_406_2722">
<rect width="241" height="100" fill="white"/>
</clipPath>
</defs>
</svg>
