<svg width="147" height="161" viewBox="0 0 147 161" fill="none" xmlns="http://www.w3.org/2000/svg">
<g clip-path="url(#clip0_410_3954)">
<path d="M100.05 26.189V0.0594754L85.2475 0C85.2475 0 85.2675 24.5237 85.2675 25.5943V29.1628C85.2675 30.7885 85.2075 32.4736 85.0873 34.1984C84.9671 35.9033 84.7067 37.5686 84.3462 39.1943C83.9856 40.8001 83.4248 42.3267 82.6637 43.7541C81.9225 45.1617 80.901 46.4107 79.6191 47.501C78.3372 48.5716 76.7348 49.4439 74.8319 50.0387C74.4514 50.1576 74.0107 50.2567 73.57 50.3757C73.1094 50.2766 72.6887 50.1774 72.3082 50.0387C70.4053 49.4241 68.8029 48.5716 67.541 47.501C66.2791 46.4305 65.2576 45.1617 64.5165 43.7541C63.7754 42.3267 63.2145 40.8001 62.854 39.1943C62.4935 37.5686 62.2331 35.8835 62.1129 34.1984C61.9927 32.4934 61.9326 30.7885 61.9326 29.1628V25.5943C61.9326 24.5237 61.9527 0.198251 61.9527 0.198251H46.9502H46.9302L46.9502 26.189C46.9302 26.6053 46.7098 36.3197 48.4725 40.6019C48.6728 41.1174 48.8731 41.6328 49.0534 42.1681C49.4139 43.2188 49.8145 44.3092 50.3954 45.3798C51.2767 46.9856 52.5586 48.4725 54.181 49.7809C55.8035 51.0894 57.9066 52.1401 60.4304 52.9133C62.3132 53.4882 67.541 53.5675 67.6011 53.5675L67.6612 53.1909L67.6412 53.5675H67.6612H67.6812C67.8415 53.5675 71.0863 53.5081 73.2696 53.171C73.51 53.171 73.6502 53.171 73.6502 53.171C73.6702 53.171 73.6902 53.171 73.7103 53.171C73.7103 53.171 73.8104 53.171 73.9706 53.171C76.2741 53.5081 79.7593 53.5477 79.7994 53.5477L79.8394 53.171L79.8194 53.5477H79.8394H79.8595C80.0598 53.5477 84.8269 53.4684 86.6697 52.8935C89.1734 52.1401 91.2565 51.0894 92.8789 49.7611C94.4813 48.4527 95.7633 46.9658 96.6446 45.3599C97.2254 44.2894 97.606 43.2188 97.9866 42.1681C98.1468 41.6328 98.3271 41.1174 98.5474 40.6019C100.29 36.2998 100.05 26.5855 100.05 26.189ZM80.7408 49.7809C82.3632 48.4725 83.6251 46.9856 84.5264 45.3798C85.1073 44.3092 85.4879 43.2188 85.8684 42.1879C86.0487 41.6526 86.249 41.1372 86.4493 40.6217C88.1919 36.3197 87.9716 26.6053 87.9716 26.2088V1.90321H91.4368C91.4368 7.61286 91.4568 24.7021 91.4568 25.5744V29.143C91.4568 30.7885 91.3967 32.4736 91.2765 34.1984C91.1564 35.9232 90.916 37.6083 90.5354 39.2538C90.1749 40.8993 89.6141 42.4456 88.8529 43.9127C88.0918 45.3599 87.0702 46.6486 85.7683 47.7786C84.4664 48.8888 82.8439 49.7611 80.921 50.3955C80.4203 50.5541 79.8795 50.6929 79.2986 50.8118C79.7994 50.4946 80.3001 50.1576 80.7408 49.7809ZM59.2486 2.835V26.1692C59.2486 26.5855 59.0083 36.2998 60.7509 40.5821C60.9512 41.0975 62.0728 44.2894 62.6537 45.3401C63.535 46.9459 64.7969 48.4328 66.4193 49.7413C66.88 50.118 67.4008 50.4748 67.9617 50.8118C67.2806 50.6929 66.6597 50.5343 66.1189 50.3559C64.176 49.7215 62.5736 48.8492 61.2716 47.7389C59.9697 46.6287 58.9482 45.3401 58.187 43.873C57.4259 42.4258 56.865 40.8596 56.5045 39.2141C56.144 37.5686 55.8836 35.8835 55.7634 34.1587C55.6432 32.4339 55.5831 30.7488 55.5831 29.1033V25.5348C55.5831 24.6823 55.6032 9.11957 55.6032 2.79535H59.2486V2.835ZM60.0899 50.0387C58.187 49.4241 56.5646 48.5716 55.3027 47.501C54.0408 46.4305 52.9993 45.1617 52.2581 43.7541C51.497 42.3267 50.9362 40.8001 50.5756 39.1943C50.2151 37.5686 49.9547 35.8835 49.8345 34.1984C49.7143 32.4934 49.6543 30.7885 49.6543 29.1628V25.5943C49.6543 24.722 49.6743 8.84201 49.6743 2.85482H53.6602V26.2088C53.6602 26.2088 53.3999 36.2007 55.1224 40.4829C55.7233 41.9897 56.144 43.6351 57.0053 45.2212C57.8665 46.7873 59.0683 48.2346 60.6507 49.5034C61.0914 49.8602 61.5721 50.1973 62.0929 50.5145C61.3317 50.3757 60.6507 50.2171 60.0899 50.0387ZM97.3657 29.1628C97.3657 30.7885 97.3056 32.4736 97.1854 34.1984C97.0652 35.9033 96.8248 37.5885 96.4443 39.1943C96.0837 40.8001 95.5229 42.3465 94.7818 43.7541C94.0407 45.1617 93.0192 46.4107 91.7573 47.501C90.4954 48.5716 88.893 49.4439 86.9901 50.0387C86.3892 50.2369 85.6681 50.3955 84.907 50.5343C85.4278 50.2171 85.9285 49.8602 86.3892 49.5034C87.9516 48.2148 89.1734 46.7873 90.0347 45.2212C90.896 43.6351 91.2966 42.0095 91.9175 40.4829C93.6401 36.2007 93.3797 26.2088 93.3797 26.2088V1.90321H97.3657C97.3657 7.13705 97.3857 24.6823 97.3857 25.5744V29.1628H97.3657Z" fill="#4B5EAA"/>
<path d="M29.0835 89.3516V112.051C29.0835 114.648 28.5027 116.909 27.3209 118.871C26.1391 120.814 24.4566 122.321 22.2333 123.352C20.03 124.383 17.4261 124.898 14.4016 124.898C9.85475 124.898 6.30944 123.748 3.78567 121.429C1.26189 119.129 0 115.957 0 111.952V89.3516H7.49121V110.822C7.49121 113.518 8.03202 115.501 9.13367 116.77C10.2353 118.039 12.058 118.673 14.5818 118.673C17.0455 118.673 18.8282 118.039 19.9298 116.77C21.0315 115.501 21.5923 113.499 21.5923 110.783V89.3516H29.0835Z" fill="#4B5EAA"/>
<path d="M66.1192 124.898V103.487C66.1192 100.771 65.5583 98.7688 64.4567 97.5C63.355 96.2312 61.5724 95.5968 59.1087 95.5968C56.5649 95.5968 54.7622 96.2312 53.6605 97.5C52.5589 98.7688 52.0181 100.751 52.0181 103.448V124.898H44.5269V102.298C44.5269 98.2732 45.7887 95.121 48.3125 92.8014C50.8363 90.4819 54.3816 89.332 58.9284 89.332C61.9529 89.332 64.5769 89.8475 66.7802 90.8982C68.9835 91.9291 70.686 93.4358 71.8678 95.3787C73.0295 97.3216 73.6304 99.6014 73.6304 102.199V124.898H66.1192Z" fill="#4B5EAA"/>
<path d="M98.4673 89.3516H90.9761V124.898H98.4673V89.3516Z" fill="#4B5EAA"/>
<path d="M147 106.838C147 110.962 146.259 114.431 144.777 117.207C143.294 120.002 141.131 122.044 138.267 123.333L144.416 129.954H134.802L130.696 124.899H130.135C124.707 124.899 120.54 123.333 117.636 120.22C114.732 117.107 113.27 112.627 113.27 106.779C113.27 100.93 114.732 96.4893 117.636 93.3966C120.56 90.3237 124.727 88.7773 130.175 88.7773C135.623 88.7773 139.789 90.3237 142.674 93.4363C145.558 96.5488 147 101.009 147 106.838ZM121.141 106.838C121.141 110.763 121.902 113.717 123.405 115.7C124.907 117.682 127.15 118.674 130.135 118.674C136.124 118.674 139.128 114.728 139.128 106.838C139.128 98.9278 136.144 94.9826 130.175 94.9826C127.19 94.9826 124.927 95.9739 123.405 97.9762C121.902 99.9587 121.141 102.913 121.141 106.838Z" fill="#4B5EAA"/>
<path d="M40.3606 160.644C39.4392 160.862 38.4177 160.981 37.3161 160.981C36.1744 160.981 35.1328 160.802 34.1914 160.445C33.2299 160.089 32.4087 159.593 31.7277 158.939C31.0467 158.284 30.5059 157.511 30.1253 156.599C29.7447 155.687 29.5444 154.696 29.5444 153.586C29.5444 152.456 29.7447 151.445 30.1253 150.533C30.5259 149.621 31.0667 148.848 31.7477 148.213C32.4488 147.579 33.25 147.083 34.1914 146.726C35.1328 146.389 36.1343 146.211 37.2159 146.211C38.3376 146.211 39.3791 146.37 40.3406 146.707C41.302 147.044 42.0832 147.5 42.6841 148.055L40.5209 150.493C40.1803 150.117 39.7397 149.799 39.1989 149.542C38.6581 149.304 38.0371 149.185 37.3361 149.185C36.7352 149.185 36.1744 149.284 35.6736 149.522C35.1729 149.74 34.7322 150.037 34.3516 150.434C33.9711 150.83 33.6906 151.286 33.4703 151.821C33.27 152.357 33.1699 152.932 33.1699 153.566C33.1699 154.22 33.27 154.815 33.4503 155.35C33.6305 155.886 33.911 156.361 34.2915 156.758C34.6521 157.154 35.1128 157.452 35.6536 157.67C36.1944 157.888 36.8153 158.007 37.4963 158.007C37.8969 158.007 38.2775 157.987 38.638 157.928C38.9986 157.868 39.3391 157.769 39.6395 157.65V155.093H36.9355V152.357H42.7842V159.791C42.1032 160.128 41.282 160.406 40.3606 160.644Z" fill="#4B5EAA"/>
<path d="M57.1856 160.624L54.101 155.053H52.9392V160.624H49.5942V146.588H55.0023C55.6833 146.588 56.3443 146.667 57.0053 146.806C57.6463 146.945 58.2272 147.183 58.7479 147.5C59.2687 147.837 59.6693 148.273 59.9898 148.808C60.2902 149.344 60.4505 150.018 60.4505 150.83C60.4505 151.782 60.1901 152.575 59.6693 153.229C59.1485 153.884 58.4275 154.34 57.5061 154.617L61.2116 160.624H57.1856ZM57.0454 150.89C57.0454 150.553 56.9653 150.295 56.8251 150.077C56.6848 149.879 56.5046 149.72 56.2842 149.601C56.0639 149.482 55.8035 149.403 55.5431 149.363C55.2627 149.324 55.0023 149.304 54.7419 149.304H52.9192V152.575H54.5416C54.8221 152.575 55.1025 152.555 55.4029 152.496C55.7034 152.456 55.9638 152.357 56.2041 152.238C56.4445 152.119 56.6448 151.941 56.805 151.723C56.9653 151.524 57.0454 151.247 57.0454 150.89Z" fill="#4B5EAA"/>
<path d="M81.6624 153.546C81.6624 154.656 81.4621 155.668 81.0815 156.599C80.7009 157.511 80.1601 158.304 79.4791 158.959C78.7981 159.613 77.9768 160.108 77.0354 160.465C76.094 160.822 75.0525 161 73.9508 161C72.8492 161 71.8076 160.822 70.8662 160.465C69.9248 160.108 69.1036 159.613 68.4225 158.959C67.7415 158.304 67.2007 157.511 66.8001 156.599C66.4195 155.687 66.2192 154.676 66.2192 153.546C66.2192 152.416 66.4195 151.405 66.8001 150.493C67.1807 149.581 67.7215 148.828 68.4225 148.193C69.1036 147.559 69.9248 147.063 70.8662 146.726C71.8076 146.389 72.8291 146.211 73.9508 146.211C75.0525 146.211 76.094 146.389 77.0354 146.726C77.9768 147.063 78.7981 147.559 79.4791 148.193C80.1601 148.828 80.7009 149.601 81.0815 150.493C81.4821 151.405 81.6624 152.416 81.6624 153.546ZM77.9969 153.546C77.9969 152.932 77.8967 152.377 77.6964 151.841C77.4961 151.306 77.2157 150.85 76.8552 150.473C76.4946 150.097 76.074 149.799 75.5732 149.581C75.0725 149.363 74.5117 149.244 73.9108 149.244C73.3099 149.244 72.769 149.363 72.2683 149.581C71.7675 149.799 71.3469 150.097 70.9864 150.473C70.6258 150.85 70.3454 151.306 70.1451 151.841C69.9448 152.377 69.8447 152.932 69.8447 153.546C69.8447 154.181 69.9448 154.775 70.1451 155.311C70.3454 155.846 70.6258 156.302 70.9864 156.679C71.3469 157.055 71.7675 157.372 72.2483 157.591C72.749 157.809 73.2898 157.928 73.8907 157.928C74.4916 157.928 75.0324 157.828 75.5332 157.591C76.0339 157.372 76.4546 157.075 76.8151 156.679C77.1756 156.302 77.4561 155.846 77.6564 155.311C77.8967 154.756 77.9969 154.181 77.9969 153.546Z" fill="#4B5EAA"/>
<path d="M99.529 157.63C99.2486 158.324 98.828 158.919 98.3072 159.415C97.7664 159.91 97.1255 160.307 96.3643 160.584C95.6032 160.862 94.782 161.001 93.8606 161.001C92.9192 161.001 92.0779 160.862 91.3368 160.584C90.5957 160.307 89.9547 159.91 89.434 159.415C88.9132 158.919 88.5126 158.324 88.2322 157.63C87.9517 156.937 87.8115 156.163 87.8115 155.331V146.588H91.2166V155.053C91.2166 155.43 91.2567 155.807 91.3568 156.144C91.457 156.481 91.6172 156.798 91.8175 157.056C92.0178 157.333 92.2982 157.551 92.6387 157.71C92.9793 157.868 93.3999 157.948 93.8806 157.948C94.3613 157.948 94.7619 157.868 95.1024 157.71C95.4429 157.551 95.7234 157.333 95.9437 157.056C96.164 156.778 96.3042 156.481 96.4044 156.144C96.5045 155.807 96.5446 155.43 96.5446 155.053V146.588H99.9697V155.331C99.9497 156.163 99.8095 156.937 99.529 157.63Z" fill="#4B5EAA"/>
<path d="M117.476 150.91C117.476 151.723 117.316 152.416 117.015 152.972C116.715 153.527 116.294 153.983 115.773 154.34C115.253 154.677 114.652 154.934 113.971 155.093C113.29 155.251 112.589 155.331 111.847 155.331H110.145V160.624H106.72V146.588H111.928C112.709 146.588 113.43 146.667 114.111 146.826C114.792 146.984 115.373 147.222 115.873 147.559C116.374 147.896 116.775 148.332 117.055 148.888C117.336 149.423 117.476 150.097 117.476 150.91ZM114.051 150.93C114.051 150.593 113.991 150.335 113.85 150.117C113.71 149.899 113.53 149.74 113.31 149.621C113.089 149.502 112.829 149.423 112.548 149.383C112.268 149.344 111.968 149.324 111.667 149.324H110.165V152.635H111.607C111.928 152.635 112.228 152.615 112.528 152.555C112.829 152.496 113.089 152.416 113.31 152.278C113.55 152.139 113.73 151.961 113.87 151.762C113.991 151.524 114.051 151.247 114.051 150.93Z" fill="#4B5EAA"/>
</g>
<defs>
<clipPath id="clip0_410_3954">
<rect width="147" height="161" fill="white"/>
</clipPath>
</defs>
</svg>
