<svg version="1.1" id="Layer_1" xmlns="http://www.w3.org/2000/svg" x="0px" y="0px"
     viewBox="0 0 254 460" style="enable-background:new 0 0 254 460;" xml:space="preserve">
<style type="text/css">
	.st0{fill:#FFFFFF;}
	.st1{fill:#2926E5;}
	.st2{fill:#F2EB03;}
</style>
    <g>
	<g>
		<path class="st0" d="M15.9,395.5c2.3,0,4.3,0.8,5.8,2.5c1.5,1.7,2.3,3.7,2.3,6.2c0,2.4-0.8,4.5-2.3,6.2c-1.5,1.7-3.5,2.5-5.8,2.5
			c-2.1,0-3.9-0.7-5.3-2c-1.4-1.4-2.3-3.1-2.7-5.2H5.5v6.9H2v-16.7h3.5v6.7h2.4c0.3-2,1.2-3.7,2.7-5.1
			C12.1,396.1,13.8,395.5,15.9,395.5z M15.9,409.7c1.4,0,2.5-0.5,3.3-1.5c0.9-1,1.3-2.3,1.3-4c0-1.7-0.4-3-1.3-4
			c-0.9-1-2-1.5-3.3-1.5c-1.3,0-2.4,0.5-3.3,1.5c-0.9,1-1.3,2.3-1.3,4c0,1.6,0.4,3,1.3,4S14.5,409.7,15.9,409.7z"/>
        <path class="st0" d="M37.7,412.6h-3.4v-16.7h7.3c1.8,0,3.2,0.5,4.3,1.4c1.1,0.9,1.6,2.1,1.6,3.6c0,1.5-0.5,2.7-1.6,3.7
			c-1,0.9-2.5,1.4-4.3,1.4h-3.9V412.6z M37.7,398.8v4.2h3.6c0.8,0,1.5-0.2,1.9-0.5c0.5-0.4,0.7-0.9,0.7-1.5s-0.2-1.2-0.7-1.5
			c-0.5-0.4-1.1-0.5-1.9-0.5H37.7z"/>
        <path class="st0" d="M60.1,412.6h-2.9v-16.7h3.4v10.9l8.1-10.9h3v16.7h-3.4v-11L60.1,412.6z"/>
        <path class="st0" d="M84.4,416h-3.2v-6.5h1.7c0.7-1.1,1.3-2.6,1.7-4.3c0.4-1.7,0.5-3.9,0.5-6.7v-2.7h11.8v13.7h2.3v6.5h-3.2v-3.4
			H84.4V416z M86.6,409.5h6.7v-10.6h-4.9c0,2.3-0.1,4.3-0.4,6C87.8,406.5,87.3,408,86.6,409.5z"/>
        <path class="st0" d="M111.7,412.6h-2.9v-16.7h3.4v10.9l8.1-10.9h3v16.7h-3.4v-11L111.7,412.6z"/>
        <path class="st0" d="M147,412.6h-3.4V406c-1.2,0.4-2.4,0.6-3.8,0.6c-2,0-3.5-0.5-4.6-1.4c-1.1-0.9-1.6-2.3-1.6-4.1v-5.4h3.4v4.8
			c0,1,0.3,1.8,0.8,2.2c0.5,0.4,1.3,0.7,2.4,0.7c1.2,0,2.4-0.2,3.3-0.7v-6.9h3.4V412.6z"/>
        <path class="st0" d="M161.4,412.6h-3.4v-16.7h3.4v6.3h7.6v-6.3h3.4v16.7h-3.4v-7.3h-7.6V412.6z"/>
        <path class="st0" d="M185.4,412.6h-3.6l7.2-16.8h3.3l7.2,16.8h-3.7l-1.7-3.9H187L185.4,412.6z M190.6,400l-2.5,5.8h4.9L190.6,400z
			"/>
        <path class="st0" d="M5.4,459.3H2v-16.7h3.4v6.6l6.2-6.6h4.2l-7.1,7.7l8.3,9.1h-4.4l-7.2-7.7V459.3z"/>
        <path class="st0" d="M23.8,450.9c0-2.5,0.8-4.5,2.5-6.2c1.6-1.7,3.7-2.5,6.2-2.5c2.5,0,4.6,0.8,6.2,2.5c1.7,1.7,2.5,3.7,2.5,6.2
			c0,2.4-0.8,4.5-2.5,6.2c-1.6,1.7-3.7,2.5-6.2,2.5c-2.5,0-4.6-0.8-6.2-2.5C24.6,455.4,23.8,453.3,23.8,450.9z M28.7,454.8
			c1,1,2.2,1.6,3.7,1.6c1.5,0,2.7-0.5,3.7-1.6c1-1,1.5-2.3,1.5-3.9s-0.5-2.9-1.5-3.9c-1-1-2.2-1.6-3.7-1.6c-1.5,0-2.7,0.5-3.7,1.6
			c-1,1-1.5,2.3-1.5,3.9S27.8,453.8,28.7,454.8z"/>
        <path class="st0" d="M54.9,459.3h-3.4v-16.7h3.4l4.9,6.9l4.9-6.9h3.4v16.7h-3.4v-11.5l-3.9,5.4h-1.9l-3.9-5.4V459.3z"/>
        <path class="st0" d="M82.3,459.3h-3.4v-16.7h14v16.7h-3.4v-13.7h-7.2V459.3z"/>
        <path class="st0" d="M105.9,459.3h-3.6l7.2-16.8h3.3l7.2,16.8h-3.7l-1.7-3.9h-7.1L105.9,459.3z M111.1,446.8l-2.5,5.8h4.9
			L111.1,446.8z"/>
        <path class="st0" d="M132.8,459.3h-3.4v-16.7h3.4v6.3h7.6v-6.3h3.4v16.7h-3.4v-7.3h-7.6V459.3z"/>
        <path class="st0" d="M158.2,459.3h-3.4v-16.7h3.4V459.3z"/>
        <path class="st0" d="M171.7,459.3h-4l5.2-7.2c-1.1-0.3-2-0.9-2.6-1.7c-0.6-0.8-0.9-1.8-0.9-2.9c0-1.5,0.5-2.7,1.6-3.6
			c1-0.9,2.4-1.4,4.2-1.4h7.8v16.7h-3.4v-6.8h-2.9L171.7,459.3z M175.4,449.6h4.1v-4.1h-4.1c-0.8,0-1.4,0.2-1.8,0.5
			c-0.4,0.4-0.7,0.9-0.7,1.5c0,0.7,0.2,1.2,0.7,1.5C174,449.4,174.6,449.6,175.4,449.6z"/>
	</g>
        <g>
		<g>
			<path id="XMLID_00000093142186247109347050000009247240793666261128_" class="st0" d="M55.5,216.4c0,4.6-1,10.5-2.9,14.5h11.8
				v-19.5h-8.9V216.4z"/>
            <path id="XMLID_00000093163750813329606590000001214755618532502174_" class="st0" d="M134.4,52.8c0-2.1-1.6-3.8-3.8-3.8h-5.2
				v7.5h5.2C132.7,56.5,134.4,54.8,134.4,52.8z"/>
            <path id="XMLID_00000123412964116768213370000009541237945827054504_" class="st0" d="M60,293.1c-6,0-9.8,4.3-9.8,9.7
				s3.8,9.7,9.8,9.7c6,0,9.8-4.3,9.8-9.7S66,293.1,60,293.1z"/>
            <path id="XMLID_00000094591553571175372690000013239887336911409837_" class="st0" d="M60,144.9h-4.6v7.3H60
				c2.1,0,3.8-1.6,3.8-3.7C63.8,146.4,62.1,144.9,60,144.9z"/>
            <path id="XMLID_00000054236402205794888360000003876757669138149541_" class="st0" d="M63.2,132.1c0-1.9-1.7-3.4-3.6-3.4h-4.1v7
				h4.1C61.5,135.6,63.2,134.1,63.2,132.1z"/>
            <polygon id="XMLID_00000027565484304324451360000017613261567052350858_" class="st0" points="194.7,64.7 202.4,64.7 198.5,53
							"/>
            <path class="st0" d="M0.2,0v362.5h254V0H0.2z M39.7,36.9h39.7v43.9H65.9V49H53.3v31.7H39.7V36.9z M77.3,150.6
				c0,6.5-5.4,11.8-12.8,11.8H41.9v-43.9h21.8c6.9,0,12,4.9,12,10.8c0,4.3-2.8,8.2-6.6,10.1C73.8,141.2,77.3,145.4,77.3,150.6z
				 M60,325.6c-14.6,0-23.2-10.1-23.2-22.9c0-12.7,8.6-22.9,23.2-22.9c14.6,0,23.2,10.2,23.2,22.9C83.3,315.6,74.6,325.6,60,325.6z
				 M85.4,252.7H73.8v-9.6H44.8v9.6H33.2v-21.8h5.4c2.5-3.9,4-8.1,4-15.8v-15.9h35.3v31.7h7.5V252.7z M136.5,243.1h-13.2v-43.9h13.2
				V243.1z M145.6,130.3h-17.7v4.4H141v11.2h-13.2v4.8h17.7v11.8h-31.3v-43.9h31.3V130.3z M132,68.6h-6.6v12.1h-13.5V36.9H132
				c9,0,16,7.2,16,16C148,61.7,141,68.6,132,68.6z M219.4,243.1h-13.5v-31.7h-9v6.3c0,18.2-6.7,25.4-15.6,25.4h-5.4v-12.2h1.6
				c4.4,0,6.5-2.9,6.5-16.2v-15.5h35.3V243.1z M207.6,80.7l-1.8-5.5h-14.5l-1.8,5.5h-13.6l14.9-43.9h15.5l14.9,43.9H207.6z"/>
		</g>
            <rect x="175.9" y="126.5" class="st1" width="45.3" height="13.9"/>
            <rect x="175.9" y="140.4" class="st2" width="45.3" height="13.9"/>
	</g>
</g>
</svg>
